<svg width="313" height="60" viewBox="0 0 313 60" fill="none" xmlns="http://www.w3.org/2000/svg">
<path d="M103.744 50.4478L101.659 48.3628C101.149 48.5028 100.629 48.5728 100.099 48.5728C99.1289 48.5728 98.2439 48.3478 97.4439 47.8978C96.6439 47.4378 96.0089 46.8028 95.5389 45.9928C95.0789 45.1728 94.8489 44.2528 94.8489 43.2328C94.8489 42.2128 95.0789 41.2978 95.5389 40.4878C96.0089 39.6678 96.6439 39.0328 97.4439 38.5828C98.2439 38.1228 99.1289 37.8928 100.099 37.8928C101.079 37.8928 101.969 38.1228 102.769 38.5828C103.569 39.0328 104.199 39.6628 104.659 40.4728C105.119 41.2828 105.349 42.2028 105.349 43.2328C105.349 44.2328 105.129 45.1328 104.689 45.9328C104.249 46.7328 103.644 47.3628 102.874 47.8228L105.514 50.4478H103.744ZM96.2439 43.2328C96.2439 44.0628 96.4089 44.7928 96.7389 45.4228C97.0789 46.0528 97.5389 46.5378 98.1189 46.8778C98.7089 47.2178 99.3689 47.3878 100.099 47.3878C100.829 47.3878 101.484 47.2178 102.064 46.8778C102.654 46.5378 103.114 46.0528 103.444 45.4228C103.784 44.7928 103.954 44.0628 103.954 43.2328C103.954 42.3928 103.784 41.6628 103.444 41.0428C103.114 40.4128 102.659 39.9278 102.079 39.5878C101.499 39.2478 100.839 39.0778 100.099 39.0778C99.3589 39.0778 98.6989 39.2478 98.1189 39.5878C97.5389 39.9278 97.0789 40.4128 96.7389 41.0428C96.4089 41.6628 96.2439 42.3928 96.2439 43.2328ZM114.47 40.2478V48.4678H113.105V47.2528C112.845 47.6728 112.48 48.0028 112.01 48.2428C111.55 48.4728 111.04 48.5878 110.48 48.5878C109.84 48.5878 109.265 48.4578 108.755 48.1978C108.245 47.9278 107.84 47.5278 107.54 46.9978C107.25 46.4678 107.105 45.8228 107.105 45.0628V40.2478H108.455V44.8828C108.455 45.6928 108.66 46.3178 109.07 46.7578C109.48 47.1878 110.04 47.4028 110.75 47.4028C111.48 47.4028 112.055 47.1778 112.475 46.7278C112.895 46.2778 113.105 45.6228 113.105 44.7628V40.2478H114.47ZM116.265 44.3278C116.265 43.4878 116.435 42.7528 116.775 42.1228C117.115 41.4828 117.58 40.9878 118.17 40.6378C118.77 40.2878 119.435 40.1128 120.165 40.1128C120.885 40.1128 121.51 40.2678 122.04 40.5778C122.57 40.8878 122.965 41.2778 123.225 41.7478V40.2478H124.605V48.4678H123.225V46.9378C122.955 47.4178 122.55 47.8178 122.01 48.1378C121.48 48.4478 120.86 48.6028 120.15 48.6028C119.42 48.6028 118.76 48.4228 118.17 48.0628C117.58 47.7028 117.115 47.1978 116.775 46.5478C116.435 45.8978 116.265 45.1578 116.265 44.3278ZM123.225 44.3428C123.225 43.7228 123.1 43.1828 122.85 42.7228C122.6 42.2628 122.26 41.9128 121.83 41.6728C121.41 41.4228 120.945 41.2978 120.435 41.2978C119.925 41.2978 119.46 41.4178 119.04 41.6578C118.62 41.8978 118.285 42.2478 118.035 42.7078C117.785 43.1678 117.66 43.7078 117.66 44.3278C117.66 44.9578 117.785 45.5078 118.035 45.9778C118.285 46.4378 118.62 46.7928 119.04 47.0428C119.46 47.2828 119.925 47.4028 120.435 47.4028C120.945 47.4028 121.41 47.2828 121.83 47.0428C122.26 46.7928 122.6 46.4378 122.85 45.9778C123.1 45.5078 123.225 44.9628 123.225 44.3428ZM128.277 37.3678V48.4678H126.912V37.3678H128.277ZM131.308 38.9128C131.048 38.9128 130.828 38.8228 130.648 38.6428C130.468 38.4628 130.378 38.2428 130.378 37.9828C130.378 37.7228 130.468 37.5028 130.648 37.3228C130.828 37.1428 131.048 37.0528 131.308 37.0528C131.558 37.0528 131.768 37.1428 131.938 37.3228C132.118 37.5028 132.208 37.7228 132.208 37.9828C132.208 38.2428 132.118 38.4628 131.938 38.6428C131.768 38.8228 131.558 38.9128 131.308 38.9128ZM131.968 40.2478V48.4678H130.603V40.2478H131.968ZM135.959 41.3728V46.2178C135.959 46.6178 136.044 46.9028 136.214 47.0728C136.384 47.2328 136.679 47.3128 137.099 47.3128H138.104V48.4678H136.874C136.114 48.4678 135.544 48.2928 135.164 47.9428C134.784 47.5928 134.594 47.0178 134.594 46.2178V41.3728H133.529V40.2478H134.594V38.1778H135.959V40.2478H138.104V41.3728H135.959ZM146.838 40.2478L141.888 52.3378H140.478L142.098 48.3778L138.783 40.2478H140.298L142.878 46.9078L145.428 40.2478H146.838ZM152.914 38.9128C152.654 38.9128 152.434 38.8228 152.254 38.6428C152.074 38.4628 151.984 38.2428 151.984 37.9828C151.984 37.7228 152.074 37.5028 152.254 37.3228C152.434 37.1428 152.654 37.0528 152.914 37.0528C153.164 37.0528 153.374 37.1428 153.544 37.3228C153.724 37.5028 153.814 37.7228 153.814 37.9828C153.814 38.2428 153.724 38.4628 153.544 38.6428C153.374 38.8228 153.164 38.9128 152.914 38.9128ZM153.574 40.2478V48.4678H152.209V40.2478H153.574ZM158.811 48.6028C158.181 48.6028 157.616 48.4978 157.116 48.2878C156.616 48.0678 156.221 47.7678 155.931 47.3878C155.641 46.9978 155.481 46.5528 155.451 46.0528H156.861C156.901 46.4628 157.091 46.7978 157.431 47.0578C157.781 47.3178 158.236 47.4478 158.796 47.4478C159.316 47.4478 159.726 47.3328 160.026 47.1028C160.326 46.8728 160.476 46.5828 160.476 46.2328C160.476 45.8728 160.316 45.6078 159.996 45.4378C159.676 45.2578 159.181 45.0828 158.511 44.9128C157.901 44.7528 157.401 44.5928 157.011 44.4328C156.631 44.2628 156.301 44.0178 156.021 43.6978C155.751 43.3678 155.616 42.9378 155.616 42.4078C155.616 41.9878 155.741 41.6028 155.991 41.2528C156.241 40.9028 156.596 40.6278 157.056 40.4278C157.516 40.2178 158.041 40.1128 158.631 40.1128C159.541 40.1128 160.276 40.3428 160.836 40.8028C161.396 41.2628 161.696 41.8928 161.736 42.6928H160.371C160.341 42.2628 160.166 41.9178 159.846 41.6578C159.536 41.3978 159.116 41.2678 158.586 41.2678C158.096 41.2678 157.706 41.3728 157.416 41.5828C157.126 41.7928 156.981 42.0678 156.981 42.4078C156.981 42.6778 157.066 42.9028 157.236 43.0828C157.416 43.2528 157.636 43.3928 157.896 43.5028C158.166 43.6028 158.536 43.7178 159.006 43.8478C159.596 44.0078 160.076 44.1678 160.446 44.3278C160.816 44.4778 161.131 44.7078 161.391 45.0178C161.661 45.3278 161.801 45.7328 161.811 46.2328C161.811 46.6828 161.686 47.0878 161.436 47.4478C161.186 47.8078 160.831 48.0928 160.371 48.3028C159.921 48.5028 159.401 48.6028 158.811 48.6028ZM172.477 48.5728C171.507 48.5728 170.622 48.3478 169.822 47.8978C169.022 47.4378 168.387 46.8028 167.917 45.9928C167.457 45.1728 167.227 44.2528 167.227 43.2328C167.227 42.2128 167.457 41.2978 167.917 40.4878C168.387 39.6678 169.022 39.0328 169.822 38.5828C170.622 38.1228 171.507 37.8928 172.477 37.8928C173.457 37.8928 174.347 38.1228 175.147 38.5828C175.947 39.0328 176.577 39.6628 177.037 40.4728C177.497 41.2828 177.727 42.2028 177.727 43.2328C177.727 44.2628 177.497 45.1828 177.037 45.9928C176.577 46.8028 175.947 47.4378 175.147 47.8978C174.347 48.3478 173.457 48.5728 172.477 48.5728ZM172.477 47.3878C173.207 47.3878 173.862 47.2178 174.442 46.8778C175.032 46.5378 175.492 46.0528 175.822 45.4228C176.162 44.7928 176.332 44.0628 176.332 43.2328C176.332 42.3928 176.162 41.6628 175.822 41.0428C175.492 40.4128 175.037 39.9278 174.457 39.5878C173.877 39.2478 173.217 39.0778 172.477 39.0778C171.737 39.0778 171.077 39.2478 170.497 39.5878C169.917 39.9278 169.457 40.4128 169.117 41.0428C168.787 41.6628 168.622 42.3928 168.622 43.2328C168.622 44.0628 168.787 44.7928 169.117 45.4228C169.457 46.0528 169.917 46.5378 170.497 46.8778C171.087 47.2178 171.747 47.3878 172.477 47.3878ZM186.819 40.2478V48.4678H185.454V47.2528C185.194 47.6728 184.829 48.0028 184.359 48.2428C183.899 48.4728 183.389 48.5878 182.829 48.5878C182.189 48.5878 181.614 48.4578 181.104 48.1978C180.594 47.9278 180.189 47.5278 179.889 46.9978C179.599 46.4678 179.454 45.8228 179.454 45.0628V40.2478H180.804V44.8828C180.804 45.6928 181.009 46.3178 181.419 46.7578C181.829 47.1878 182.389 47.4028 183.099 47.4028C183.829 47.4028 184.404 47.1778 184.824 46.7278C185.244 46.2778 185.454 45.6228 185.454 44.7628V40.2478H186.819ZM190.489 41.5828C190.729 41.1128 191.069 40.7478 191.509 40.4878C191.959 40.2278 192.504 40.0978 193.144 40.0978V41.5078H192.784C191.254 41.5078 190.489 42.3378 190.489 43.9978V48.4678H189.124V40.2478H190.489V41.5828ZM200.083 38.0128V48.4678H198.718V38.0128H200.083ZM201.9 44.3278C201.9 43.4878 202.07 42.7528 202.41 42.1228C202.75 41.4828 203.215 40.9878 203.805 40.6378C204.405 40.2878 205.075 40.1128 205.815 40.1128C206.455 40.1128 207.05 40.2628 207.6 40.5628C208.15 40.8528 208.57 41.2378 208.86 41.7178V37.3678H210.24V48.4678H208.86V46.9228C208.59 47.4128 208.19 47.8178 207.66 48.1378C207.13 48.4478 206.51 48.6028 205.8 48.6028C205.07 48.6028 204.405 48.4228 203.805 48.0628C203.215 47.7028 202.75 47.1978 202.41 46.5478C202.07 45.8978 201.9 45.1578 201.9 44.3278ZM208.86 44.3428C208.86 43.7228 208.735 43.1828 208.485 42.7228C208.235 42.2628 207.895 41.9128 207.465 41.6728C207.045 41.4228 206.58 41.2978 206.07 41.2978C205.56 41.2978 205.095 41.4178 204.675 41.6578C204.255 41.8978 203.92 42.2478 203.67 42.7078C203.42 43.1678 203.295 43.7078 203.295 44.3278C203.295 44.9578 203.42 45.5078 203.67 45.9778C203.92 46.4378 204.255 46.7928 204.675 47.0428C205.095 47.2828 205.56 47.4028 206.07 47.4028C206.58 47.4028 207.045 47.2828 207.465 47.0428C207.895 46.7928 208.235 46.4378 208.485 45.9778C208.735 45.5078 208.86 44.9628 208.86 44.3428ZM220.046 44.0428C220.046 44.3028 220.031 44.5778 220.001 44.8678H213.431C213.481 45.6778 213.756 46.3128 214.256 46.7728C214.766 47.2228 215.381 47.4478 216.101 47.4478C216.691 47.4478 217.181 47.3128 217.571 47.0428C217.971 46.7628 218.251 46.3928 218.411 45.9328H219.881C219.661 46.7228 219.221 47.3678 218.561 47.8678C217.901 48.3578 217.081 48.6028 216.101 48.6028C215.321 48.6028 214.621 48.4278 214.001 48.0778C213.391 47.7278 212.911 47.2328 212.561 46.5928C212.211 45.9428 212.036 45.1928 212.036 44.3428C212.036 43.4928 212.206 42.7478 212.546 42.1078C212.886 41.4678 213.361 40.9778 213.971 40.6378C214.591 40.2878 215.301 40.1128 216.101 40.1128C216.881 40.1128 217.571 40.2828 218.171 40.6228C218.771 40.9628 219.231 41.4328 219.551 42.0328C219.881 42.6228 220.046 43.2928 220.046 44.0428ZM218.636 43.7578C218.636 43.2378 218.521 42.7928 218.291 42.4228C218.061 42.0428 217.746 41.7578 217.346 41.5678C216.956 41.3678 216.521 41.2678 216.041 41.2678C215.351 41.2678 214.761 41.4878 214.271 41.9278C213.791 42.3678 213.516 42.9778 213.446 43.7578H218.636ZM225.853 40.0978C226.853 40.0978 227.663 40.4028 228.283 41.0128C228.903 41.6128 229.213 42.4828 229.213 43.6228V48.4678H227.863V43.8178C227.863 42.9978 227.658 42.3728 227.248 41.9428C226.838 41.5028 226.278 41.2828 225.568 41.2828C224.848 41.2828 224.273 41.5078 223.843 41.9578C223.423 42.4078 223.213 43.0628 223.213 43.9228V48.4678H221.848V40.2478H223.213V41.4178C223.483 40.9978 223.848 40.6728 224.308 40.4428C224.778 40.2128 225.293 40.0978 225.853 40.0978ZM233.108 41.3728V46.2178C233.108 46.6178 233.193 46.9028 233.363 47.0728C233.533 47.2328 233.828 47.3128 234.248 47.3128H235.253V48.4678H234.023C233.263 48.4678 232.693 48.2928 232.313 47.9428C231.933 47.5928 231.743 47.0178 231.743 46.2178V41.3728H230.678V40.2478H231.743V38.1778H233.108V40.2478H235.253V41.3728H233.108ZM237.612 38.9128C237.352 38.9128 237.132 38.8228 236.952 38.6428C236.772 38.4628 236.682 38.2428 236.682 37.9828C236.682 37.7228 236.772 37.5028 236.952 37.3228C237.132 37.1428 237.352 37.0528 237.612 37.0528C237.862 37.0528 238.072 37.1428 238.242 37.3228C238.422 37.5028 238.512 37.7228 238.512 37.9828C238.512 38.2428 238.422 38.4628 238.242 38.6428C238.072 38.8228 237.862 38.9128 237.612 38.9128ZM238.272 40.2478V48.4678H236.907V40.2478H238.272ZM242.263 41.3728V46.2178C242.263 46.6178 242.348 46.9028 242.518 47.0728C242.688 47.2328 242.983 47.3128 243.403 47.3128H244.408V48.4678H243.178C242.418 48.4678 241.848 48.2928 241.468 47.9428C241.088 47.5928 240.898 47.0178 240.898 46.2178V41.3728H239.833V40.2478H240.898V38.1778H242.263V40.2478H244.408V41.3728H242.263ZM253.142 40.2478L248.192 52.3378H246.782L248.402 48.3778L245.087 40.2478H246.602L249.182 46.9078L251.732 40.2478H253.142Z" fill="#D9D9D9"/>
<path d="M98.5719 10.878V29H96.2059V10.878H98.5719ZM109.546 14.492C111.28 14.492 112.684 15.0207 113.758 16.078C114.833 17.118 115.37 18.626 115.37 20.602V29H113.03V20.94C113.03 19.5187 112.675 18.4353 111.964 17.69C111.254 16.9273 110.283 16.546 109.052 16.546C107.804 16.546 106.808 16.936 106.062 17.716C105.334 18.496 104.97 19.6313 104.97 21.122V29H102.604V14.752H104.97V16.78C105.438 16.052 106.071 15.4887 106.868 15.09C107.683 14.6913 108.576 14.492 109.546 14.492ZM118.351 21.824C118.351 20.368 118.646 19.094 119.235 18.002C119.824 16.8927 120.63 16.0347 121.653 15.428C122.693 14.8213 123.854 14.518 125.137 14.518C126.246 14.518 127.278 14.778 128.231 15.298C129.184 15.8007 129.912 16.468 130.415 17.3V9.76H132.807V29H130.415V26.322C129.947 27.1713 129.254 27.8733 128.335 28.428C127.416 28.9653 126.342 29.234 125.111 29.234C123.846 29.234 122.693 28.922 121.653 28.298C120.63 27.674 119.824 26.7987 119.235 25.672C118.646 24.5453 118.351 23.2627 118.351 21.824ZM130.415 21.85C130.415 20.7753 130.198 19.8393 129.765 19.042C129.332 18.2447 128.742 17.638 127.997 17.222C127.269 16.7887 126.463 16.572 125.579 16.572C124.695 16.572 123.889 16.78 123.161 17.196C122.433 17.612 121.852 18.2187 121.419 19.016C120.986 19.8133 120.769 20.7493 120.769 21.824C120.769 22.916 120.986 23.8693 121.419 24.684C121.852 25.4813 122.433 26.0967 123.161 26.53C123.889 26.946 124.695 27.154 125.579 27.154C126.463 27.154 127.269 26.946 127.997 26.53C128.742 26.0967 129.332 25.4813 129.765 24.684C130.198 23.8693 130.415 22.9247 130.415 21.85ZM143.019 29.234C141.685 29.234 140.471 28.9307 139.379 28.324C138.305 27.7173 137.455 26.8593 136.831 25.75C136.225 24.6233 135.921 23.3233 135.921 21.85C135.921 20.394 136.233 19.1113 136.857 18.002C137.499 16.8753 138.365 16.0173 139.457 15.428C140.549 14.8213 141.771 14.518 143.123 14.518C144.475 14.518 145.697 14.8213 146.789 15.428C147.881 16.0173 148.739 16.8667 149.363 17.976C150.005 19.0853 150.325 20.3767 150.325 21.85C150.325 23.3233 149.996 24.6233 149.337 25.75C148.696 26.8593 147.821 27.7173 146.711 28.324C145.602 28.9307 144.371 29.234 143.019 29.234ZM143.019 27.154C143.869 27.154 144.666 26.9547 145.411 26.556C146.157 26.1573 146.755 25.5593 147.205 24.762C147.673 23.9647 147.907 22.994 147.907 21.85C147.907 20.706 147.682 19.7353 147.231 18.938C146.781 18.1407 146.191 17.5513 145.463 17.17C144.735 16.7713 143.947 16.572 143.097 16.572C142.231 16.572 141.433 16.7713 140.705 17.17C139.995 17.5513 139.423 18.1407 138.989 18.938C138.556 19.7353 138.339 20.706 138.339 21.85C138.339 23.0113 138.547 23.9907 138.963 24.788C139.397 25.5853 139.969 26.1833 140.679 26.582C141.39 26.9633 142.17 27.154 143.019 27.154ZM160.378 14.492C162.112 14.492 163.516 15.0207 164.59 16.078C165.665 17.118 166.202 18.626 166.202 20.602V29H163.862V20.94C163.862 19.5187 163.507 18.4353 162.796 17.69C162.086 16.9273 161.115 16.546 159.884 16.546C158.636 16.546 157.64 16.936 156.894 17.716C156.166 18.496 155.802 19.6313 155.802 21.122V29H153.436V14.752H155.802V16.78C156.27 16.052 156.903 15.4887 157.7 15.09C158.515 14.6913 159.408 14.492 160.378 14.492ZM183.067 21.33C183.067 21.7807 183.041 22.2573 182.989 22.76H171.601C171.688 24.164 172.165 25.2647 173.031 26.062C173.915 26.842 174.981 27.232 176.229 27.232C177.252 27.232 178.101 26.998 178.777 26.53C179.471 26.0447 179.956 25.4033 180.233 24.606H182.781C182.4 25.9753 181.637 27.0933 180.493 27.96C179.349 28.8093 177.928 29.234 176.229 29.234C174.877 29.234 173.664 28.9307 172.589 28.324C171.532 27.7173 170.7 26.8593 170.093 25.75C169.487 24.6233 169.183 23.3233 169.183 21.85C169.183 20.3767 169.478 19.0853 170.067 17.976C170.657 16.8667 171.48 16.0173 172.537 15.428C173.612 14.8213 174.843 14.518 176.229 14.518C177.581 14.518 178.777 14.8127 179.817 15.402C180.857 15.9913 181.655 16.806 182.209 17.846C182.781 18.8687 183.067 20.03 183.067 21.33ZM180.623 20.836C180.623 19.9347 180.424 19.1633 180.025 18.522C179.627 17.8633 179.081 17.3693 178.387 17.04C177.711 16.6933 176.957 16.52 176.125 16.52C174.929 16.52 173.907 16.9013 173.057 17.664C172.225 18.4267 171.749 19.484 171.627 20.836H180.623ZM191.234 29.234C190.142 29.234 189.163 29.052 188.296 28.688C187.43 28.3067 186.745 27.7867 186.242 27.128C185.74 26.452 185.462 25.6807 185.41 24.814H187.854C187.924 25.5247 188.253 26.1053 188.842 26.556C189.449 27.0067 190.238 27.232 191.208 27.232C192.11 27.232 192.82 27.0327 193.34 26.634C193.86 26.2353 194.12 25.7327 194.12 25.126C194.12 24.502 193.843 24.0427 193.288 23.748C192.734 23.436 191.876 23.1327 190.714 22.838C189.657 22.5607 188.79 22.2833 188.114 22.006C187.456 21.7113 186.884 21.2867 186.398 20.732C185.93 20.16 185.696 19.4147 185.696 18.496C185.696 17.768 185.913 17.1007 186.346 16.494C186.78 15.8873 187.395 15.4107 188.192 15.064C188.99 14.7 189.9 14.518 190.922 14.518C192.5 14.518 193.774 14.9167 194.744 15.714C195.715 16.5113 196.235 17.6033 196.304 18.99H193.938C193.886 18.2447 193.583 17.6467 193.028 17.196C192.491 16.7453 191.763 16.52 190.844 16.52C189.995 16.52 189.319 16.702 188.816 17.066C188.314 17.43 188.062 17.9067 188.062 18.496C188.062 18.964 188.21 19.354 188.504 19.666C188.816 19.9607 189.198 20.2033 189.648 20.394C190.116 20.5673 190.758 20.7667 191.572 20.992C192.595 21.2693 193.427 21.5467 194.068 21.824C194.71 22.084 195.256 22.4827 195.706 23.02C196.174 23.5573 196.417 24.2593 196.434 25.126C196.434 25.906 196.218 26.608 195.784 27.232C195.351 27.856 194.736 28.35 193.938 28.714C193.158 29.0607 192.257 29.234 191.234 29.234ZM200.996 12.438C200.546 12.438 200.164 12.282 199.852 11.97C199.54 11.658 199.384 11.2767 199.384 10.826C199.384 10.3753 199.54 9.994 199.852 9.682C200.164 9.37 200.546 9.214 200.996 9.214C201.43 9.214 201.794 9.37 202.088 9.682C202.4 9.994 202.556 10.3753 202.556 10.826C202.556 11.2767 202.4 11.658 202.088 11.97C201.794 12.282 201.43 12.438 200.996 12.438ZM202.14 14.752V29H199.774V14.752H202.14ZM205.289 21.824C205.289 20.368 205.583 19.094 206.173 18.002C206.762 16.8927 207.568 16.0347 208.591 15.428C209.631 14.8213 210.783 14.518 212.049 14.518C213.297 14.518 214.38 14.7867 215.299 15.324C216.217 15.8613 216.902 16.5373 217.353 17.352V14.752H219.745V29H217.353V26.348C216.885 27.18 216.183 27.8733 215.247 28.428C214.328 28.9653 213.253 29.234 212.023 29.234C210.757 29.234 209.613 28.922 208.591 28.298C207.568 27.674 206.762 26.7987 206.173 25.672C205.583 24.5453 205.289 23.2627 205.289 21.824ZM217.353 21.85C217.353 20.7753 217.136 19.8393 216.703 19.042C216.269 18.2447 215.68 17.638 214.935 17.222C214.207 16.7887 213.401 16.572 212.517 16.572C211.633 16.572 210.827 16.78 210.099 17.196C209.371 17.612 208.79 18.2187 208.357 19.016C207.923 19.8133 207.707 20.7493 207.707 21.824C207.707 22.916 207.923 23.8693 208.357 24.684C208.79 25.4813 209.371 26.0967 210.099 26.53C210.827 26.946 211.633 27.154 212.517 27.154C213.401 27.154 214.207 26.946 214.935 26.53C215.68 26.0967 216.269 25.4813 216.703 24.684C217.136 23.8693 217.353 22.9247 217.353 21.85ZM244.403 16.13C243.9 15.0727 243.172 14.258 242.219 13.686C241.265 13.0967 240.156 12.802 238.891 12.802C237.625 12.802 236.481 13.0967 235.459 13.686C234.453 14.258 233.656 15.09 233.067 16.182C232.495 17.2567 232.209 18.5047 232.209 19.926C232.209 21.3473 232.495 22.5953 233.067 23.67C233.656 24.7447 234.453 25.5767 235.459 26.166C236.481 26.738 237.625 27.024 238.891 27.024C240.659 27.024 242.115 26.4953 243.259 25.438C244.403 24.3807 245.07 22.9507 245.261 21.148H238.033V19.224H247.783V21.044C247.644 22.5347 247.176 23.904 246.379 25.152C245.581 26.3827 244.533 27.362 243.233 28.09C241.933 28.8007 240.485 29.156 238.891 29.156C237.209 29.156 235.675 28.766 234.289 27.986C232.902 27.1887 231.801 26.088 230.987 24.684C230.189 23.28 229.791 21.694 229.791 19.926C229.791 18.158 230.189 16.572 230.987 15.168C231.801 13.7467 232.902 12.646 234.289 11.866C235.675 11.0687 237.209 10.67 238.891 10.67C240.815 10.67 242.513 11.1467 243.987 12.1C245.477 13.0533 246.561 14.3967 247.237 16.13H244.403ZM253.277 17.066C253.693 16.2513 254.282 15.6187 255.045 15.168C255.825 14.7173 256.77 14.492 257.879 14.492V16.936H257.255C254.603 16.936 253.277 18.3747 253.277 21.252V29H250.911V14.752H253.277V17.066ZM266.824 29.234C265.489 29.234 264.276 28.9307 263.184 28.324C262.109 27.7173 261.26 26.8593 260.636 25.75C260.029 24.6233 259.726 23.3233 259.726 21.85C259.726 20.394 260.038 19.1113 260.662 18.002C261.303 16.8753 262.17 16.0173 263.262 15.428C264.354 14.8213 265.576 14.518 266.928 14.518C268.28 14.518 269.502 14.8213 270.594 15.428C271.686 16.0173 272.544 16.8667 273.168 17.976C273.809 19.0853 274.13 20.3767 274.13 21.85C274.13 23.3233 273.801 24.6233 273.142 25.75C272.501 26.8593 271.625 27.7173 270.516 28.324C269.407 28.9307 268.176 29.234 266.824 29.234ZM266.824 27.154C267.673 27.154 268.471 26.9547 269.216 26.556C269.961 26.1573 270.559 25.5593 271.01 24.762C271.478 23.9647 271.712 22.994 271.712 21.85C271.712 20.706 271.487 19.7353 271.036 18.938C270.585 18.1407 269.996 17.5513 269.268 17.17C268.54 16.7713 267.751 16.572 266.902 16.572C266.035 16.572 265.238 16.7713 264.51 17.17C263.799 17.5513 263.227 18.1407 262.794 18.938C262.361 19.7353 262.144 20.706 262.144 21.85C262.144 23.0113 262.352 23.9907 262.768 24.788C263.201 25.5853 263.773 26.1833 264.484 26.582C265.195 26.9633 265.975 27.154 266.824 27.154ZM289.877 14.752V29H287.511V26.894C287.06 27.622 286.428 28.194 285.613 28.61C284.816 29.0087 283.932 29.208 282.961 29.208C281.852 29.208 280.855 28.9827 279.971 28.532C279.087 28.064 278.385 27.3707 277.865 26.452C277.362 25.5333 277.111 24.4153 277.111 23.098V14.752H279.451V22.786C279.451 24.19 279.806 25.2733 280.517 26.036C281.228 26.7813 282.198 27.154 283.429 27.154C284.694 27.154 285.691 26.764 286.419 25.984C287.147 25.204 287.511 24.0687 287.511 22.578V14.752H289.877ZM296.238 17.378C296.706 16.5633 297.399 15.8873 298.318 15.35C299.254 14.7953 300.337 14.518 301.568 14.518C302.833 14.518 303.977 14.8213 305 15.428C306.04 16.0347 306.855 16.8927 307.444 18.002C308.033 19.094 308.328 20.368 308.328 21.824C308.328 23.2627 308.033 24.5453 307.444 25.672C306.855 26.7987 306.04 27.674 305 28.298C303.977 28.922 302.833 29.234 301.568 29.234C300.355 29.234 299.28 28.9653 298.344 28.428C297.425 27.8733 296.723 27.1887 296.238 26.374V35.76H293.872V14.752H296.238V17.378ZM305.91 21.824C305.91 20.7493 305.693 19.8133 305.26 19.016C304.827 18.2187 304.237 17.612 303.492 17.196C302.764 16.78 301.958 16.572 301.074 16.572C300.207 16.572 299.401 16.7887 298.656 17.222C297.928 17.638 297.339 18.2533 296.888 19.068C296.455 19.8653 296.238 20.7927 296.238 21.85C296.238 22.9247 296.455 23.8693 296.888 24.684C297.339 25.4813 297.928 26.0967 298.656 26.53C299.401 26.946 300.207 27.154 301.074 27.154C301.958 27.154 302.764 26.946 303.492 26.53C304.237 26.0967 304.827 25.4813 305.26 24.684C305.693 23.8693 305.91 22.916 305.91 21.824Z" fill="#FF2E2E"/>
<path d="M0 53.3423L12.3073 7.87109H18.8712L13.1278 27.9093H24.6146L30.358 7.87109H36.1014L23.7941 53.3423H17.2302L22.9736 33.3042H12.3073L6.56388 53.3423H0Z" fill="#FF0000"/>
<path d="M39.3832 13.452L41.0241 7.87109H65.6387L63.9977 13.452H54.9724L44.3061 54.113H37.7422L48.4085 13.452H39.3832Z" fill="#FF0000"/>
<path fill-rule="evenodd" clip-rule="evenodd" d="M75.4848 7.87109L52.5112 53.3423H59.0751L61.5366 47.9474H72.2029L71.3824 53.3423H77.1258L82.0487 7.87109H75.4848ZM74.6643 23.2852L64.8185 42.5527H73.0233L74.6643 23.2852Z" fill="#FF0000"/>
</svg>
