<svg width="125" height="62" viewBox="0 0 125 62" fill="none" xmlns="http://www.w3.org/2000/svg">
<path fill-rule="evenodd" clip-rule="evenodd" d="M0 62L9.25721 6.2L20.8287 0H48.6004L43.9718 23.7667H67.1148L65.9576 29.9667L79.8435 23.7667L78.6863 33.0667L63.6433 40.3L61.329 55.8H101.829L102.986 46.5H93.7293L81.0006 39.2667L83.3149 29.9667L93.7293 23.7667H124.972L123.815 29.9667H100.236L98.3579 40.3H107.615L120.344 46.5L119.187 54.7667L107.615 62H42.8146L48.6004 29.9667H42.8146L38.186 62H20.8287L25.4573 29.9667H13.8858L9.25721 62H0ZM17.3573 7.23334H28.9288L26.6145 23.7667H15.043L17.3573 7.23334Z" fill="#FF0000"/>
</svg>
