<svg width="234" height="45" viewBox="0 0 234 45" fill="none" xmlns="http://www.w3.org/2000/svg">
<path d="M69.78 8.1V22H67.5V8.1H69.78ZM78.3334 10.8C79.2001 10.8 79.9734 10.98 80.6534 11.34C81.3468 11.7 81.8868 12.2333 82.2734 12.94C82.6601 13.6467 82.8534 14.5 82.8534 15.5V22H80.5934V15.84C80.5934 14.8533 80.3468 14.1 79.8534 13.58C79.3601 13.0467 78.6868 12.78 77.8334 12.78C76.9801 12.78 76.3001 13.0467 75.7934 13.58C75.3001 14.1 75.0534 14.8533 75.0534 15.84V22H72.7734V10.98H75.0534V12.24C75.4268 11.7867 75.9001 11.4333 76.4734 11.18C77.0601 10.9267 77.6801 10.8 78.3334 10.8ZM85.0017 16.44C85.0017 15.3333 85.2284 14.3533 85.6817 13.5C86.1484 12.6467 86.7751 11.9867 87.5617 11.52C88.3617 11.04 89.2484 10.8 90.2217 10.8C90.9417 10.8 91.6484 10.96 92.3417 11.28C93.0484 11.5867 93.6084 12 94.0217 12.52V7.2H96.3217V22H94.0217V20.34C93.6484 20.8733 93.1284 21.3133 92.4617 21.66C91.8084 22.0067 91.0551 22.18 90.2017 22.18C89.2417 22.18 88.3617 21.94 87.5617 21.46C86.7751 20.9667 86.1484 20.2867 85.6817 19.42C85.2284 18.54 85.0017 17.5467 85.0017 16.44ZM94.0217 16.48C94.0217 15.72 93.8617 15.06 93.5417 14.5C93.2351 13.94 92.8284 13.5133 92.3217 13.22C91.8151 12.9267 91.2684 12.78 90.6817 12.78C90.0951 12.78 89.5484 12.9267 89.0417 13.22C88.5351 13.5 88.1217 13.92 87.8017 14.48C87.4951 15.0267 87.3417 15.68 87.3417 16.44C87.3417 17.2 87.4951 17.8667 87.8017 18.44C88.1217 19.0133 88.5351 19.4533 89.0417 19.76C89.5617 20.0533 90.1084 20.2 90.6817 20.2C91.2684 20.2 91.8151 20.0533 92.3217 19.76C92.8284 19.4667 93.2351 19.04 93.5417 18.48C93.8617 17.9067 94.0217 17.24 94.0217 16.48ZM104.096 22.18C103.056 22.18 102.116 21.9467 101.276 21.48C100.436 21 99.7764 20.3333 99.2964 19.48C98.8164 18.6133 98.5764 17.6133 98.5764 16.48C98.5764 15.36 98.8231 14.3667 99.3164 13.5C99.8097 12.6333 100.483 11.9667 101.336 11.5C102.19 11.0333 103.143 10.8 104.196 10.8C105.25 10.8 106.203 11.0333 107.056 11.5C107.91 11.9667 108.583 12.6333 109.076 13.5C109.57 14.3667 109.816 15.36 109.816 16.48C109.816 17.6 109.563 18.5933 109.056 19.46C108.55 20.3267 107.856 21 106.976 21.48C106.11 21.9467 105.15 22.18 104.096 22.18ZM104.096 20.2C104.683 20.2 105.23 20.06 105.736 19.78C106.256 19.5 106.676 19.08 106.996 18.52C107.316 17.96 107.476 17.28 107.476 16.48C107.476 15.68 107.323 15.0067 107.016 14.46C106.71 13.9 106.303 13.48 105.796 13.2C105.29 12.92 104.743 12.78 104.156 12.78C103.57 12.78 103.023 12.92 102.516 13.2C102.023 13.48 101.63 13.9 101.336 14.46C101.043 15.0067 100.896 15.68 100.896 16.48C100.896 17.6667 101.196 18.5867 101.796 19.24C102.41 19.88 103.176 20.2 104.096 20.2ZM117.63 10.8C118.497 10.8 119.27 10.98 119.95 11.34C120.644 11.7 121.184 12.2333 121.57 12.94C121.957 13.6467 122.15 14.5 122.15 15.5V22H119.89V15.84C119.89 14.8533 119.644 14.1 119.15 13.58C118.657 13.0467 117.984 12.78 117.13 12.78C116.277 12.78 115.597 13.0467 115.09 13.58C114.597 14.1 114.35 14.8533 114.35 15.84V22H112.07V10.98H114.35V12.24C114.724 11.7867 115.197 11.4333 115.77 11.18C116.357 10.9267 116.977 10.8 117.63 10.8ZM135.159 16.22C135.159 16.6333 135.132 17.0067 135.079 17.34H126.659C126.725 18.22 127.052 18.9267 127.639 19.46C128.225 19.9933 128.945 20.26 129.799 20.26C131.025 20.26 131.892 19.7467 132.399 18.72H134.859C134.525 19.7333 133.919 20.5667 133.039 21.22C132.172 21.86 131.092 22.18 129.799 22.18C128.745 22.18 127.799 21.9467 126.959 21.48C126.132 21 125.479 20.3333 124.999 19.48C124.532 18.6133 124.299 17.6133 124.299 16.48C124.299 15.3467 124.525 14.3533 124.979 13.5C125.445 12.6333 126.092 11.9667 126.919 11.5C127.759 11.0333 128.719 10.8 129.799 10.8C130.839 10.8 131.765 11.0267 132.579 11.48C133.392 11.9333 134.025 12.5733 134.479 13.4C134.932 14.2133 135.159 15.1533 135.159 16.22ZM132.779 15.5C132.765 14.66 132.465 13.9867 131.879 13.48C131.292 12.9733 130.565 12.72 129.699 12.72C128.912 12.72 128.239 12.9733 127.679 13.48C127.119 13.9733 126.785 14.6467 126.679 15.5H132.779ZM141.402 22.18C140.536 22.18 139.756 22.0267 139.062 21.72C138.382 21.4 137.842 20.9733 137.442 20.44C137.042 19.8933 136.829 19.2867 136.802 18.62H139.162C139.202 19.0867 139.422 19.48 139.822 19.8C140.236 20.1067 140.749 20.26 141.362 20.26C142.002 20.26 142.496 20.14 142.842 19.9C143.202 19.6467 143.382 19.3267 143.382 18.94C143.382 18.5267 143.182 18.22 142.782 18.02C142.396 17.82 141.776 17.6 140.922 17.36C140.096 17.1333 139.422 16.9133 138.902 16.7C138.382 16.4867 137.929 16.16 137.542 15.72C137.169 15.28 136.982 14.7 136.982 13.98C136.982 13.3933 137.156 12.86 137.502 12.38C137.849 11.8867 138.342 11.5 138.982 11.22C139.636 10.94 140.382 10.8 141.222 10.8C142.476 10.8 143.482 11.12 144.242 11.76C145.016 12.3867 145.429 13.2467 145.482 14.34H143.202C143.162 13.8467 142.962 13.4533 142.602 13.16C142.242 12.8667 141.756 12.72 141.142 12.72C140.542 12.72 140.082 12.8333 139.762 13.06C139.442 13.2867 139.282 13.5867 139.282 13.96C139.282 14.2533 139.389 14.5 139.602 14.7C139.816 14.9 140.076 15.06 140.382 15.18C140.689 15.2867 141.142 15.4267 141.742 15.6C142.542 15.8133 143.196 16.0333 143.702 16.26C144.222 16.4733 144.669 16.7933 145.042 17.22C145.416 17.6467 145.609 18.2133 145.622 18.92C145.622 19.5467 145.449 20.1067 145.102 20.6C144.756 21.0933 144.262 21.48 143.622 21.76C142.996 22.04 142.256 22.18 141.402 22.18ZM149.246 9.52C148.833 9.52 148.486 9.38 148.206 9.1C147.926 8.82 147.786 8.47333 147.786 8.06C147.786 7.64667 147.926 7.3 148.206 7.02C148.486 6.74 148.833 6.6 149.246 6.6C149.646 6.6 149.986 6.74 150.266 7.02C150.546 7.3 150.686 7.64667 150.686 8.06C150.686 8.47333 150.546 8.82 150.266 9.1C149.986 9.38 149.646 9.52 149.246 9.52ZM150.366 10.98V22H148.086V10.98H150.366ZM152.599 16.44C152.599 15.3333 152.826 14.3533 153.279 13.5C153.746 12.6467 154.373 11.9867 155.159 11.52C155.959 11.04 156.839 10.8 157.799 10.8C158.666 10.8 159.419 10.9733 160.059 11.32C160.713 11.6533 161.233 12.0733 161.619 12.58V10.98H163.919V22H161.619V20.36C161.233 20.88 160.706 21.3133 160.039 21.66C159.373 22.0067 158.613 22.18 157.759 22.18C156.813 22.18 155.946 21.94 155.159 21.46C154.373 20.9667 153.746 20.2867 153.279 19.42C152.826 18.54 152.599 17.5467 152.599 16.44ZM161.619 16.48C161.619 15.72 161.459 15.06 161.139 14.5C160.833 13.94 160.426 13.5133 159.919 13.22C159.413 12.9267 158.866 12.78 158.279 12.78C157.693 12.78 157.146 12.9267 156.639 13.22C156.133 13.5 155.719 13.92 155.399 14.48C155.093 15.0267 154.939 15.68 154.939 16.44C154.939 17.2 155.093 17.8667 155.399 18.44C155.719 19.0133 156.133 19.4533 156.639 19.76C157.159 20.0533 157.706 20.2 158.279 20.2C158.866 20.2 159.413 20.0533 159.919 19.76C160.426 19.4667 160.833 19.04 161.139 18.48C161.459 17.9067 161.619 17.24 161.619 16.48ZM182.169 12.1C181.809 11.4067 181.309 10.8867 180.669 10.54C180.029 10.18 179.289 10 178.449 10C177.529 10 176.709 10.2067 175.989 10.62C175.269 11.0333 174.703 11.62 174.289 12.38C173.889 13.14 173.689 14.02 173.689 15.02C173.689 16.02 173.889 16.9067 174.289 17.68C174.703 18.44 175.269 19.0267 175.989 19.44C176.709 19.8533 177.529 20.06 178.449 20.06C179.689 20.06 180.696 19.7133 181.469 19.02C182.243 18.3267 182.716 17.3867 182.889 16.2H177.669V14.38H185.329V16.16C185.183 17.24 184.796 18.2333 184.169 19.14C183.556 20.0467 182.749 20.7733 181.749 21.32C180.763 21.8533 179.663 22.12 178.449 22.12C177.143 22.12 175.949 21.82 174.869 21.22C173.789 20.6067 172.929 19.76 172.289 18.68C171.663 17.6 171.349 16.38 171.349 15.02C171.349 13.66 171.663 12.44 172.289 11.36C172.929 10.28 173.789 9.44 174.869 8.84C175.963 8.22667 177.156 7.92 178.449 7.92C179.929 7.92 181.243 8.28667 182.389 9.02C183.549 9.74 184.389 10.7667 184.909 12.1H182.169ZM189.858 12.58C190.191 12.02 190.631 11.5867 191.178 11.28C191.738 10.96 192.398 10.8 193.158 10.8V13.16H192.578C191.685 13.16 191.005 13.3867 190.538 13.84C190.085 14.2933 189.858 15.08 189.858 16.2V22H187.578V10.98H189.858V12.58ZM200.034 22.18C198.994 22.18 198.054 21.9467 197.214 21.48C196.374 21 195.714 20.3333 195.234 19.48C194.754 18.6133 194.514 17.6133 194.514 16.48C194.514 15.36 194.761 14.3667 195.254 13.5C195.747 12.6333 196.421 11.9667 197.274 11.5C198.127 11.0333 199.081 10.8 200.134 10.8C201.187 10.8 202.141 11.0333 202.994 11.5C203.847 11.9667 204.521 12.6333 205.014 13.5C205.507 14.3667 205.754 15.36 205.754 16.48C205.754 17.6 205.501 18.5933 204.994 19.46C204.487 20.3267 203.794 21 202.914 21.48C202.047 21.9467 201.087 22.18 200.034 22.18ZM200.034 20.2C200.621 20.2 201.167 20.06 201.674 19.78C202.194 19.5 202.614 19.08 202.934 18.52C203.254 17.96 203.414 17.28 203.414 16.48C203.414 15.68 203.261 15.0067 202.954 14.46C202.647 13.9 202.241 13.48 201.734 13.2C201.227 12.92 200.681 12.78 200.094 12.78C199.507 12.78 198.961 12.92 198.454 13.2C197.961 13.48 197.567 13.9 197.274 14.46C196.981 15.0067 196.834 15.68 196.834 16.48C196.834 17.6667 197.134 18.5867 197.734 19.24C198.347 19.88 199.114 20.2 200.034 20.2ZM217.988 10.98V22H215.708V20.7C215.348 21.1533 214.874 21.5133 214.288 21.78C213.714 22.0333 213.101 22.16 212.448 22.16C211.581 22.16 210.801 21.98 210.108 21.62C209.428 21.26 208.888 20.7267 208.488 20.02C208.101 19.3133 207.908 18.46 207.908 17.46V10.98H210.168V17.12C210.168 18.1067 210.414 18.8667 210.908 19.4C211.401 19.92 212.074 20.18 212.928 20.18C213.781 20.18 214.454 19.92 214.948 19.4C215.454 18.8667 215.708 18.1067 215.708 17.12V10.98H217.988ZM223.276 12.6C223.663 12.0933 224.189 11.6667 224.856 11.32C225.523 10.9733 226.276 10.8 227.116 10.8C228.076 10.8 228.949 11.04 229.736 11.52C230.536 11.9867 231.163 12.6467 231.616 13.5C232.069 14.3533 232.296 15.3333 232.296 16.44C232.296 17.5467 232.069 18.54 231.616 19.42C231.163 20.2867 230.536 20.9667 229.736 21.46C228.949 21.94 228.076 22.18 227.116 22.18C226.276 22.18 225.529 22.0133 224.876 21.68C224.223 21.3333 223.689 20.9067 223.276 20.4V27.24H220.996V10.98H223.276V12.6ZM229.976 16.44C229.976 15.68 229.816 15.0267 229.496 14.48C229.189 13.92 228.776 13.5 228.256 13.22C227.749 12.9267 227.203 12.78 226.616 12.78C226.043 12.78 225.496 12.9267 224.976 13.22C224.469 13.5133 224.056 13.94 223.736 14.5C223.429 15.06 223.276 15.72 223.276 16.48C223.276 17.24 223.429 17.9067 223.736 18.48C224.056 19.04 224.469 19.4667 224.976 19.76C225.496 20.0533 226.043 20.2 226.616 20.2C227.203 20.2 227.749 20.0533 228.256 19.76C228.776 19.4533 229.189 19.0133 229.496 18.44C229.816 17.8667 229.976 17.2 229.976 16.44Z" fill="#FF2E2E"/>
<path d="M73.356 37.512L71.892 35.928C71.532 36.032 71.136 36.084 70.704 36.084C69.928 36.084 69.212 35.904 68.556 35.544C67.908 35.176 67.392 34.668 67.008 34.02C66.632 33.364 66.444 32.628 66.444 31.812C66.444 30.996 66.632 30.264 67.008 29.616C67.392 28.968 67.908 28.464 68.556 28.104C69.212 27.736 69.928 27.552 70.704 27.552C71.488 27.552 72.204 27.736 72.852 28.104C73.508 28.464 74.024 28.968 74.4 29.616C74.776 30.264 74.964 30.996 74.964 31.812C74.964 32.58 74.796 33.276 74.46 33.9C74.132 34.516 73.676 35.012 73.092 35.388L75.096 37.512H73.356ZM67.848 31.812C67.848 32.428 67.968 32.972 68.208 33.444C68.456 33.908 68.796 34.268 69.228 34.524C69.66 34.772 70.152 34.896 70.704 34.896C71.256 34.896 71.748 34.772 72.18 34.524C72.612 34.268 72.948 33.908 73.188 33.444C73.436 32.972 73.56 32.428 73.56 31.812C73.56 31.196 73.436 30.656 73.188 30.192C72.948 29.728 72.612 29.372 72.18 29.124C71.748 28.876 71.256 28.752 70.704 28.752C70.152 28.752 69.66 28.876 69.228 29.124C68.796 29.372 68.456 29.728 68.208 30.192C67.968 30.656 67.848 31.196 67.848 31.812ZM82.3333 29.388V36H80.9653V35.22C80.7493 35.492 80.4653 35.708 80.1133 35.868C79.7693 36.02 79.4013 36.096 79.0093 36.096C78.4893 36.096 78.0213 35.988 77.6053 35.772C77.1973 35.556 76.8733 35.236 76.6333 34.812C76.4013 34.388 76.2853 33.876 76.2853 33.276V29.388H77.6413V33.072C77.6413 33.664 77.7893 34.12 78.0853 34.44C78.3813 34.752 78.7853 34.908 79.2973 34.908C79.8093 34.908 80.2133 34.752 80.5093 34.44C80.8133 34.12 80.9653 33.664 80.9653 33.072V29.388H82.3333ZM83.6823 32.664C83.6823 32 83.8183 31.412 84.0903 30.9C84.3703 30.388 84.7463 29.992 85.2183 29.712C85.6983 29.424 86.2263 29.28 86.8023 29.28C87.3223 29.28 87.7743 29.384 88.1583 29.592C88.5503 29.792 88.8623 30.044 89.0943 30.348V29.388H90.4743V36H89.0943V35.016C88.8623 35.328 88.5463 35.588 88.1463 35.796C87.7463 36.004 87.2903 36.108 86.7783 36.108C86.2103 36.108 85.6903 35.964 85.2183 35.676C84.7463 35.38 84.3703 34.972 84.0903 34.452C83.8183 33.924 83.6823 33.328 83.6823 32.664ZM89.0943 32.688C89.0943 32.232 88.9983 31.836 88.8063 31.5C88.6223 31.164 88.3783 30.908 88.0743 30.732C87.7703 30.556 87.4423 30.468 87.0903 30.468C86.7383 30.468 86.4103 30.556 86.1063 30.732C85.8023 30.9 85.5543 31.152 85.3623 31.488C85.1783 31.816 85.0863 32.208 85.0863 32.664C85.0863 33.12 85.1783 33.52 85.3623 33.864C85.5543 34.208 85.8023 34.472 86.1063 34.656C86.4183 34.832 86.7463 34.92 87.0903 34.92C87.4423 34.92 87.7703 34.832 88.0743 34.656C88.3783 34.48 88.6223 34.224 88.8063 33.888C88.9983 33.544 89.0943 33.144 89.0943 32.688ZM93.6391 27.12V36H92.2711V27.12H93.6391ZM96.1312 28.512C95.8832 28.512 95.6752 28.428 95.5072 28.26C95.3392 28.092 95.2552 27.884 95.2552 27.636C95.2552 27.388 95.3392 27.18 95.5072 27.012C95.6752 26.844 95.8832 26.76 96.1312 26.76C96.3712 26.76 96.5752 26.844 96.7432 27.012C96.9112 27.18 96.9952 27.388 96.9952 27.636C96.9952 27.884 96.9112 28.092 96.7432 28.26C96.5752 28.428 96.3712 28.512 96.1312 28.512ZM96.8032 29.388V36H95.4352V29.388H96.8032ZM100.195 30.504V34.164C100.195 34.412 100.251 34.592 100.363 34.704C100.483 34.808 100.683 34.86 100.963 34.86H101.803V36H100.723C100.107 36 99.6352 35.856 99.3072 35.568C98.9792 35.28 98.8152 34.812 98.8152 34.164V30.504H98.0352V29.388H98.8152V27.744H100.195V29.388H101.803V30.504H100.195ZM109.016 29.388L104.96 39.108H103.544L104.888 35.892L102.284 29.388H103.808L105.668 34.428L107.6 29.388H109.016ZM113.862 28.512C113.614 28.512 113.406 28.428 113.238 28.26C113.07 28.092 112.986 27.884 112.986 27.636C112.986 27.388 113.07 27.18 113.238 27.012C113.406 26.844 113.614 26.76 113.862 26.76C114.102 26.76 114.306 26.844 114.474 27.012C114.642 27.18 114.726 27.388 114.726 27.636C114.726 27.884 114.642 28.092 114.474 28.26C114.306 28.428 114.102 28.512 113.862 28.512ZM114.534 29.388V36H113.166V29.388H114.534ZM118.73 36.108C118.21 36.108 117.742 36.016 117.326 35.832C116.918 35.64 116.594 35.384 116.354 35.064C116.114 34.736 115.986 34.372 115.97 33.972H117.386C117.41 34.252 117.542 34.488 117.782 34.68C118.03 34.864 118.338 34.956 118.706 34.956C119.09 34.956 119.386 34.884 119.594 34.74C119.81 34.588 119.918 34.396 119.918 34.164C119.918 33.916 119.798 33.732 119.558 33.612C119.326 33.492 118.954 33.36 118.442 33.216C117.946 33.08 117.542 32.948 117.23 32.82C116.918 32.692 116.646 32.496 116.414 32.232C116.19 31.968 116.078 31.62 116.078 31.188C116.078 30.836 116.182 30.516 116.39 30.228C116.598 29.932 116.894 29.7 117.278 29.532C117.67 29.364 118.118 29.28 118.622 29.28C119.374 29.28 119.978 29.472 120.434 29.856C120.898 30.232 121.146 30.748 121.178 31.404H119.81C119.786 31.108 119.666 30.872 119.45 30.696C119.234 30.52 118.942 30.432 118.574 30.432C118.214 30.432 117.938 30.5 117.746 30.636C117.554 30.772 117.458 30.952 117.458 31.176C117.458 31.352 117.522 31.5 117.65 31.62C117.778 31.74 117.934 31.836 118.118 31.908C118.302 31.972 118.574 32.056 118.934 32.16C119.414 32.288 119.806 32.42 120.11 32.556C120.422 32.684 120.69 32.876 120.914 33.132C121.138 33.388 121.254 33.728 121.262 34.152C121.262 34.528 121.158 34.864 120.95 35.16C120.742 35.456 120.446 35.688 120.062 35.856C119.686 36.024 119.242 36.108 118.73 36.108ZM129.661 36.084C128.885 36.084 128.169 35.904 127.513 35.544C126.865 35.176 126.349 34.668 125.965 34.02C125.589 33.364 125.401 32.628 125.401 31.812C125.401 30.996 125.589 30.264 125.965 29.616C126.349 28.968 126.865 28.464 127.513 28.104C128.169 27.736 128.885 27.552 129.661 27.552C130.445 27.552 131.161 27.736 131.809 28.104C132.465 28.464 132.981 28.968 133.357 29.616C133.733 30.264 133.921 30.996 133.921 31.812C133.921 32.628 133.733 33.364 133.357 34.02C132.981 34.668 132.465 35.176 131.809 35.544C131.161 35.904 130.445 36.084 129.661 36.084ZM129.661 34.896C130.213 34.896 130.705 34.772 131.137 34.524C131.569 34.268 131.905 33.908 132.145 33.444C132.393 32.972 132.517 32.428 132.517 31.812C132.517 31.196 132.393 30.656 132.145 30.192C131.905 29.728 131.569 29.372 131.137 29.124C130.705 28.876 130.213 28.752 129.661 28.752C129.109 28.752 128.617 28.876 128.185 29.124C127.753 29.372 127.413 29.728 127.165 30.192C126.925 30.656 126.805 31.196 126.805 31.812C126.805 32.428 126.925 32.972 127.165 33.444C127.413 33.908 127.753 34.268 128.185 34.524C128.617 34.772 129.109 34.896 129.661 34.896ZM141.255 29.388V36H139.887V35.22C139.671 35.492 139.387 35.708 139.035 35.868C138.691 36.02 138.323 36.096 137.931 36.096C137.411 36.096 136.943 35.988 136.527 35.772C136.119 35.556 135.795 35.236 135.555 34.812C135.323 34.388 135.207 33.876 135.207 33.276V29.388H136.563V33.072C136.563 33.664 136.711 34.12 137.007 34.44C137.303 34.752 137.707 34.908 138.219 34.908C138.731 34.908 139.135 34.752 139.431 34.44C139.735 34.12 139.887 33.664 139.887 33.072V29.388H141.255ZM144.428 30.348C144.628 30.012 144.892 29.752 145.22 29.568C145.556 29.376 145.952 29.28 146.408 29.28V30.696H146.06C145.524 30.696 145.116 30.832 144.836 31.104C144.564 31.376 144.428 31.848 144.428 32.52V36H143.06V29.388H144.428V30.348ZM152.151 27.66V36H150.783V27.66H152.151ZM153.491 32.664C153.491 32 153.627 31.412 153.899 30.9C154.179 30.388 154.555 29.992 155.027 29.712C155.507 29.424 156.039 29.28 156.623 29.28C157.055 29.28 157.479 29.376 157.895 29.568C158.319 29.752 158.655 30 158.903 30.312V27.12H160.283V36H158.903V35.004C158.679 35.324 158.367 35.588 157.967 35.796C157.575 36.004 157.123 36.108 156.611 36.108C156.035 36.108 155.507 35.964 155.027 35.676C154.555 35.38 154.179 34.972 153.899 34.452C153.627 33.924 153.491 33.328 153.491 32.664ZM158.903 32.688C158.903 32.232 158.807 31.836 158.615 31.5C158.431 31.164 158.187 30.908 157.883 30.732C157.579 30.556 157.251 30.468 156.899 30.468C156.547 30.468 156.219 30.556 155.915 30.732C155.611 30.9 155.363 31.152 155.171 31.488C154.987 31.816 154.895 32.208 154.895 32.664C154.895 33.12 154.987 33.52 155.171 33.864C155.363 34.208 155.611 34.472 155.915 34.656C156.227 34.832 156.555 34.92 156.899 34.92C157.251 34.92 157.579 34.832 157.883 34.656C158.187 34.48 158.431 34.224 158.615 33.888C158.807 33.544 158.903 33.144 158.903 32.688ZM168.14 32.532C168.14 32.78 168.124 33.004 168.092 33.204H163.04C163.08 33.732 163.276 34.156 163.628 34.476C163.98 34.796 164.412 34.956 164.924 34.956C165.66 34.956 166.18 34.648 166.484 34.032H167.96C167.76 34.64 167.396 35.14 166.868 35.532C166.348 35.916 165.7 36.108 164.924 36.108C164.292 36.108 163.724 35.968 163.22 35.688C162.724 35.4 162.332 35 162.044 34.488C161.764 33.968 161.624 33.368 161.624 32.688C161.624 32.008 161.76 31.412 162.032 30.9C162.312 30.38 162.7 29.98 163.196 29.7C163.7 29.42 164.276 29.28 164.924 29.28C165.548 29.28 166.104 29.416 166.592 29.688C167.08 29.96 167.46 30.344 167.732 30.84C168.004 31.328 168.14 31.892 168.14 32.532ZM166.712 32.1C166.704 31.596 166.524 31.192 166.172 30.888C165.82 30.584 165.384 30.432 164.864 30.432C164.392 30.432 163.988 30.584 163.652 30.888C163.316 31.184 163.116 31.588 163.052 32.1H166.712ZM172.822 29.28C173.342 29.28 173.806 29.388 174.214 29.604C174.63 29.82 174.954 30.14 175.186 30.564C175.418 30.988 175.534 31.5 175.534 32.1V36H174.178V32.304C174.178 31.712 174.03 31.26 173.734 30.948C173.438 30.628 173.034 30.468 172.522 30.468C172.01 30.468 171.602 30.628 171.298 30.948C171.002 31.26 170.854 31.712 170.854 32.304V36H169.486V29.388H170.854V30.144C171.078 29.872 171.362 29.66 171.706 29.508C172.058 29.356 172.43 29.28 172.822 29.28ZM178.875 30.504V34.164C178.875 34.412 178.931 34.592 179.043 34.704C179.163 34.808 179.363 34.86 179.643 34.86H180.483V36H179.403C178.787 36 178.315 35.856 177.987 35.568C177.659 35.28 177.495 34.812 177.495 34.164V30.504H176.715V29.388H177.495V27.744H178.875V29.388H180.483V30.504H178.875ZM182.44 28.512C182.192 28.512 181.984 28.428 181.816 28.26C181.648 28.092 181.564 27.884 181.564 27.636C181.564 27.388 181.648 27.18 181.816 27.012C181.984 26.844 182.192 26.76 182.44 26.76C182.68 26.76 182.884 26.844 183.052 27.012C183.22 27.18 183.304 27.388 183.304 27.636C183.304 27.884 183.22 28.092 183.052 28.26C182.884 28.428 182.68 28.512 182.44 28.512ZM183.112 29.388V36H181.744V29.388H183.112ZM186.504 30.504V34.164C186.504 34.412 186.56 34.592 186.672 34.704C186.792 34.808 186.992 34.86 187.272 34.86H188.112V36H187.032C186.416 36 185.944 35.856 185.616 35.568C185.288 35.28 185.124 34.812 185.124 34.164V30.504H184.344V29.388H185.124V27.744H186.504V29.388H188.112V30.504H186.504ZM195.325 29.388L191.269 39.108H189.853L191.197 35.892L188.593 29.388H190.117L191.977 34.428L193.909 29.388H195.325Z" fill="#515151"/>
<path d="M0 39.4333L8.7 6H13.34L9.28 20.7333H17.4L21.46 6H25.52L16.82 39.4333H12.18L16.24 24.7H8.7L4.64 39.4333H0Z" fill="#FF2E2E"/>
<path d="M27.84 10.1034L29 6H46.4L45.24 10.1034H38.86L31.32 40H26.68L34.22 10.1034H27.84Z" fill="#FF2E2E"/>
<path fill-rule="evenodd" clip-rule="evenodd" d="M53.3601 6L37.1201 39.4333H41.7601L43.5001 35.4667H51.0401L50.4601 39.4333H54.5201L58.0001 6H53.3601ZM52.78 17.3333L45.82 31.5H51.62L52.78 17.3333Z" fill="#FF2E2E"/>
</svg>
