<svg width="330" height="245" viewBox="0 0 330 245" fill="none" xmlns="http://www.w3.org/2000/svg">
<rect x="111.6" width="175.2" height="98" fill="#D9D9D9"/>
<path d="M181.206 54.242V64H179.932V59.576H174.962V64H173.688V54.242H174.962V58.526H179.932V54.242H181.206ZM186.728 64.126C186.009 64.126 185.356 63.9627 184.768 63.636C184.189 63.3093 183.732 62.8473 183.396 62.25C183.069 61.6433 182.906 60.9433 182.906 60.15C182.906 59.366 183.074 58.6753 183.41 58.078C183.755 57.4713 184.222 57.0093 184.81 56.692C185.398 56.3653 186.056 56.202 186.784 56.202C187.512 56.202 188.17 56.3653 188.758 56.692C189.346 57.0093 189.808 57.4667 190.144 58.064C190.489 58.6613 190.662 59.3567 190.662 60.15C190.662 60.9433 190.484 61.6433 190.13 62.25C189.784 62.8473 189.313 63.3093 188.716 63.636C188.118 63.9627 187.456 64.126 186.728 64.126ZM186.728 63.006C187.185 63.006 187.614 62.8987 188.016 62.684C188.417 62.4693 188.739 62.1473 188.982 61.718C189.234 61.2887 189.36 60.766 189.36 60.15C189.36 59.534 189.238 59.0113 188.996 58.582C188.753 58.1527 188.436 57.8353 188.044 57.63C187.652 57.4153 187.227 57.308 186.77 57.308C186.303 57.308 185.874 57.4153 185.482 57.63C185.099 57.8353 184.791 58.1527 184.558 58.582C184.324 59.0113 184.208 59.534 184.208 60.15C184.208 60.7753 184.32 61.3027 184.544 61.732C184.777 62.1613 185.085 62.4833 185.468 62.698C185.85 62.9033 186.27 63.006 186.728 63.006ZM199.141 56.328V64H197.867V62.866C197.624 63.258 197.283 63.566 196.845 63.79C196.415 64.0047 195.939 64.112 195.417 64.112C194.819 64.112 194.283 63.9907 193.807 63.748C193.331 63.496 192.953 63.1227 192.673 62.628C192.402 62.1333 192.267 61.5313 192.267 60.822V56.328H193.527V60.654C193.527 61.41 193.718 61.9933 194.101 62.404C194.483 62.8053 195.006 63.006 195.669 63.006C196.35 63.006 196.887 62.796 197.279 62.376C197.671 61.956 197.867 61.3447 197.867 60.542V56.328H199.141ZM204.008 64.126C203.42 64.126 202.893 64.028 202.426 63.832C201.959 63.6267 201.591 63.3467 201.32 62.992C201.049 62.628 200.9 62.2127 200.872 61.746H202.188C202.225 62.1287 202.403 62.4413 202.72 62.684C203.047 62.9267 203.471 63.048 203.994 63.048C204.479 63.048 204.862 62.9407 205.142 62.726C205.422 62.5113 205.562 62.2407 205.562 61.914C205.562 61.578 205.413 61.3307 205.114 61.172C204.815 61.004 204.353 60.8407 203.728 60.682C203.159 60.5327 202.692 60.3833 202.328 60.234C201.973 60.0753 201.665 59.8467 201.404 59.548C201.152 59.24 201.026 58.8387 201.026 58.344C201.026 57.952 201.143 57.5927 201.376 57.266C201.609 56.9393 201.941 56.6827 202.37 56.496C202.799 56.3 203.289 56.202 203.84 56.202C204.689 56.202 205.375 56.4167 205.898 56.846C206.421 57.2753 206.701 57.8633 206.738 58.61H205.464C205.436 58.2087 205.273 57.8867 204.974 57.644C204.685 57.4013 204.293 57.28 203.798 57.28C203.341 57.28 202.977 57.378 202.706 57.574C202.435 57.77 202.3 58.0267 202.3 58.344C202.3 58.596 202.379 58.806 202.538 58.974C202.706 59.1327 202.911 59.2633 203.154 59.366C203.406 59.4593 203.751 59.5667 204.19 59.688C204.741 59.8373 205.189 59.9867 205.534 60.136C205.879 60.276 206.173 60.4907 206.416 60.78C206.668 61.0693 206.799 61.4473 206.808 61.914C206.808 62.334 206.691 62.712 206.458 63.048C206.225 63.384 205.893 63.65 205.464 63.846C205.044 64.0327 204.559 64.126 204.008 64.126ZM209.264 55.082C209.022 55.082 208.816 54.998 208.648 54.83C208.48 54.662 208.396 54.4567 208.396 54.214C208.396 53.9713 208.48 53.766 208.648 53.598C208.816 53.43 209.022 53.346 209.264 53.346C209.498 53.346 209.694 53.43 209.852 53.598C210.02 53.766 210.104 53.9713 210.104 54.214C210.104 54.4567 210.02 54.662 209.852 54.83C209.694 54.998 209.498 55.082 209.264 55.082ZM209.88 56.328V64H208.606V56.328H209.88ZM215.79 56.188C216.723 56.188 217.479 56.4727 218.058 57.042C218.636 57.602 218.926 58.414 218.926 59.478V64H217.666V59.66C217.666 58.8947 217.474 58.3113 217.092 57.91C216.709 57.4993 216.186 57.294 215.524 57.294C214.852 57.294 214.315 57.504 213.914 57.924C213.522 58.344 213.326 58.9553 213.326 59.758V64H212.052V56.328H213.326V57.42C213.578 57.028 213.918 56.7247 214.348 56.51C214.786 56.2953 215.267 56.188 215.79 56.188ZM224.171 56.202C224.833 56.202 225.412 56.3467 225.907 56.636C226.411 56.9253 226.784 57.2893 227.027 57.728V56.328H228.315V64.168C228.315 64.868 228.165 65.4887 227.867 66.03C227.568 66.5807 227.139 67.01 226.579 67.318C226.028 67.626 225.384 67.78 224.647 67.78C223.639 67.78 222.799 67.542 222.127 67.066C221.455 66.59 221.058 65.9413 220.937 65.12H222.197C222.337 65.5867 222.626 65.96 223.065 66.24C223.503 66.5293 224.031 66.674 224.647 66.674C225.347 66.674 225.916 66.4547 226.355 66.016C226.803 65.5773 227.027 64.9613 227.027 64.168V62.558C226.775 63.006 226.401 63.3793 225.907 63.678C225.412 63.9767 224.833 64.126 224.171 64.126C223.489 64.126 222.869 63.958 222.309 63.622C221.758 63.286 221.324 62.8147 221.007 62.208C220.689 61.6013 220.531 60.9107 220.531 60.136C220.531 59.352 220.689 58.666 221.007 58.078C221.324 57.4807 221.758 57.0187 222.309 56.692C222.869 56.3653 223.489 56.202 224.171 56.202ZM227.027 60.15C227.027 59.5713 226.91 59.0673 226.677 58.638C226.443 58.2087 226.126 57.882 225.725 57.658C225.333 57.4247 224.899 57.308 224.423 57.308C223.947 57.308 223.513 57.42 223.121 57.644C222.729 57.868 222.416 58.1947 222.183 58.624C221.949 59.0533 221.833 59.5573 221.833 60.136C221.833 60.724 221.949 61.2373 222.183 61.676C222.416 62.1053 222.729 62.4367 223.121 62.67C223.513 62.894 223.947 63.006 224.423 63.006C224.899 63.006 225.333 62.894 225.725 62.67C226.126 62.4367 226.443 62.1053 226.677 61.676C226.91 61.2373 227.027 60.7287 227.027 60.15Z" fill="black"/>
<rect x="198" y="90" width="89" height="36" fill="#D9D9D9"/>
<path d="M116.806 102.235L121.612 98H189.639L193.82 102.235L198 106.471V125.641H112V106.471L116.806 102.235Z" fill="#84D4ED"/>
<rect x="112" y="120" width="24" height="39" fill="#84D4ED"/>
<path d="M126.333 114.333C128.722 111.821 131.111 111.821 131.111 111.821H187.25V125.641H123.944V118.731C123.944 118.731 123.945 116.846 126.333 114.333Z" fill="#CBCBCB"/>
<path d="M184.055 169.615C184.055 178.322 177.37 185.205 169.333 185.205C161.296 185.205 154.611 178.322 154.611 169.615C154.611 160.909 161.296 154.026 169.333 154.026C177.37 154.026 184.055 160.909 184.055 169.615Z" stroke="#D9D9D9" stroke-width="4"/>
<path fill-rule="evenodd" clip-rule="evenodd" d="M169.333 187.205C178.569 187.205 186.055 179.33 186.055 169.615C186.055 164.694 184.134 160.244 181.036 157.051L192.028 157.051L192.028 182.264L173.521 197.952L147.012 185.066V182.264L131.708 180.583L118.002 198.513L112 194.03C112 194.03 122.541 178.342 123.004 174.981C123.467 171.619 112 167.136 112 167.136V157.051L144.25 157.051V165.78L146.071 166.265L152.7 167.791C152.641 168.39 152.611 168.999 152.611 169.615C152.611 171.3 152.836 172.93 153.257 174.473L152.843 174.346L153.268 174.514C155.285 181.845 161.714 187.205 169.333 187.205ZM118.002 198.513H112V198.513H192.028L118.002 198.513Z" fill="#84D4ED"/>
<rect x="123.944" y="164.59" width="38.9487" height="13.1389" transform="rotate(-90 123.944 164.59)" fill="#CBCBCB"/>
<path fill-rule="evenodd" clip-rule="evenodd" d="M93.7388 198.513H320.603C320.603 198.513 325.152 201.374 326.644 204.167C329.328 209.192 330 217.987 330 217.987V198.513H330V245L330 245V224.897C330 224.897 328.993 234.949 326.644 239.346C324.294 243.743 320.603 245 320.603 245L93.7388 245V198.513Z" fill="#FFBF1A"/>
<ellipse cx="319.932" cy="221.756" rx="10.0679" ry="23.2436" fill="#ADADAD"/>
<ellipse cx="93.0679" cy="221.756" rx="10.0679" ry="23.2436" fill="#FFBF1A"/>
<rect x="230" y="147" width="99.6" height="30.1538" fill="#FF2E2E"/>
<path d="M243.881 168.098C243.237 168.098 242.658 167.986 242.145 167.762C241.641 167.529 241.244 167.211 240.955 166.81C240.666 166.399 240.516 165.928 240.507 165.396H241.865C241.912 165.853 242.098 166.241 242.425 166.558C242.761 166.866 243.246 167.02 243.881 167.02C244.488 167.02 244.964 166.871 245.309 166.572C245.664 166.264 245.841 165.872 245.841 165.396C245.841 165.023 245.738 164.719 245.533 164.486C245.328 164.253 245.071 164.075 244.763 163.954C244.455 163.833 244.04 163.702 243.517 163.562C242.873 163.394 242.355 163.226 241.963 163.058C241.58 162.89 241.249 162.629 240.969 162.274C240.698 161.91 240.563 161.425 240.563 160.818C240.563 160.286 240.698 159.815 240.969 159.404C241.24 158.993 241.618 158.676 242.103 158.452C242.598 158.228 243.162 158.116 243.797 158.116C244.712 158.116 245.458 158.345 246.037 158.802C246.625 159.259 246.956 159.866 247.031 160.622H245.631C245.584 160.249 245.388 159.922 245.043 159.642C244.698 159.353 244.24 159.208 243.671 159.208C243.139 159.208 242.705 159.348 242.369 159.628C242.033 159.899 241.865 160.281 241.865 160.776C241.865 161.131 241.963 161.42 242.159 161.644C242.364 161.868 242.612 162.041 242.901 162.162C243.2 162.274 243.615 162.405 244.147 162.554C244.791 162.731 245.309 162.909 245.701 163.086C246.093 163.254 246.429 163.52 246.709 163.884C246.989 164.239 247.129 164.724 247.129 165.34C247.129 165.816 247.003 166.264 246.751 166.684C246.499 167.104 246.126 167.445 245.631 167.706C245.136 167.967 244.553 168.098 243.881 168.098ZM256.004 163.87C256.004 164.113 255.99 164.369 255.962 164.64H249.83C249.876 165.396 250.133 165.989 250.6 166.418C251.076 166.838 251.65 167.048 252.322 167.048C252.872 167.048 253.33 166.922 253.694 166.67C254.067 166.409 254.328 166.063 254.478 165.634H255.85C255.644 166.371 255.234 166.973 254.618 167.44C254.002 167.897 253.236 168.126 252.322 168.126C251.594 168.126 250.94 167.963 250.362 167.636C249.792 167.309 249.344 166.847 249.018 166.25C248.691 165.643 248.528 164.943 248.528 164.15C248.528 163.357 248.686 162.661 249.004 162.064C249.321 161.467 249.764 161.009 250.334 160.692C250.912 160.365 251.575 160.202 252.322 160.202C253.05 160.202 253.694 160.361 254.254 160.678C254.814 160.995 255.243 161.434 255.542 161.994C255.85 162.545 256.004 163.17 256.004 163.87ZM254.688 163.604C254.688 163.119 254.58 162.703 254.366 162.358C254.151 162.003 253.857 161.737 253.484 161.56C253.12 161.373 252.714 161.28 252.266 161.28C251.622 161.28 251.071 161.485 250.614 161.896C250.166 162.307 249.909 162.876 249.844 163.604H254.688ZM257.209 164.136C257.209 163.352 257.368 162.666 257.685 162.078C258.003 161.481 258.437 161.019 258.987 160.692C259.547 160.365 260.168 160.202 260.849 160.202C261.521 160.202 262.105 160.347 262.599 160.636C263.094 160.925 263.463 161.289 263.705 161.728V160.328H264.993V168H263.705V166.572C263.453 167.02 263.075 167.393 262.571 167.692C262.077 167.981 261.498 168.126 260.835 168.126C260.154 168.126 259.538 167.958 258.987 167.622C258.437 167.286 258.003 166.815 257.685 166.208C257.368 165.601 257.209 164.911 257.209 164.136ZM263.705 164.15C263.705 163.571 263.589 163.067 263.355 162.638C263.122 162.209 262.805 161.882 262.403 161.658C262.011 161.425 261.577 161.308 261.101 161.308C260.625 161.308 260.191 161.42 259.799 161.644C259.407 161.868 259.095 162.195 258.861 162.624C258.628 163.053 258.511 163.557 258.511 164.136C258.511 164.724 258.628 165.237 258.861 165.676C259.095 166.105 259.407 166.437 259.799 166.67C260.191 166.894 260.625 167.006 261.101 167.006C261.577 167.006 262.011 166.894 262.403 166.67C262.805 166.437 263.122 166.105 263.355 165.676C263.589 165.237 263.705 164.729 263.705 164.15ZM268.42 157.64V168H267.146V157.64H268.42ZM277.592 163.87C277.592 164.113 277.578 164.369 277.55 164.64H271.418C271.464 165.396 271.721 165.989 272.188 166.418C272.664 166.838 273.238 167.048 273.91 167.048C274.46 167.048 274.918 166.922 275.282 166.67C275.655 166.409 275.916 166.063 276.066 165.634H277.438C277.232 166.371 276.822 166.973 276.206 167.44C275.59 167.897 274.824 168.126 273.91 168.126C273.182 168.126 272.528 167.963 271.95 167.636C271.38 167.309 270.932 166.847 270.606 166.25C270.279 165.643 270.116 164.943 270.116 164.15C270.116 163.357 270.274 162.661 270.592 162.064C270.909 161.467 271.352 161.009 271.922 160.692C272.5 160.365 273.163 160.202 273.91 160.202C274.638 160.202 275.282 160.361 275.842 160.678C276.402 160.995 276.831 161.434 277.13 161.994C277.438 162.545 277.592 163.17 277.592 163.87ZM276.276 163.604C276.276 163.119 276.168 162.703 275.954 162.358C275.739 162.003 275.445 161.737 275.072 161.56C274.708 161.373 274.302 161.28 273.854 161.28C273.21 161.28 272.659 161.485 272.202 161.896C271.754 162.307 271.497 162.876 271.432 163.604H276.276ZM278.797 164.136C278.797 163.352 278.956 162.666 279.273 162.078C279.591 161.481 280.025 161.019 280.575 160.692C281.135 160.365 281.761 160.202 282.451 160.202C283.049 160.202 283.604 160.342 284.117 160.622C284.631 160.893 285.023 161.252 285.293 161.7V157.64H286.581V168H285.293V166.558C285.041 167.015 284.668 167.393 284.173 167.692C283.679 167.981 283.1 168.126 282.437 168.126C281.756 168.126 281.135 167.958 280.575 167.622C280.025 167.286 279.591 166.815 279.273 166.208C278.956 165.601 278.797 164.911 278.797 164.136ZM285.293 164.15C285.293 163.571 285.177 163.067 284.943 162.638C284.71 162.209 284.393 161.882 283.991 161.658C283.599 161.425 283.165 161.308 282.689 161.308C282.213 161.308 281.779 161.42 281.387 161.644C280.995 161.868 280.683 162.195 280.449 162.624C280.216 163.053 280.099 163.557 280.099 164.136C280.099 164.724 280.216 165.237 280.449 165.676C280.683 166.105 280.995 166.437 281.387 166.67C281.779 166.894 282.213 167.006 282.689 167.006C283.165 167.006 283.599 166.894 283.991 166.67C284.393 166.437 284.71 166.105 284.943 165.676C285.177 165.237 285.293 164.729 285.293 164.15ZM295.183 168.126C294.595 168.126 294.067 168.028 293.601 167.832C293.134 167.627 292.765 167.347 292.495 166.992C292.224 166.628 292.075 166.213 292.047 165.746H293.363C293.4 166.129 293.577 166.441 293.895 166.684C294.221 166.927 294.646 167.048 295.169 167.048C295.654 167.048 296.037 166.941 296.317 166.726C296.597 166.511 296.737 166.241 296.737 165.914C296.737 165.578 296.587 165.331 296.289 165.172C295.99 165.004 295.528 164.841 294.903 164.682C294.333 164.533 293.867 164.383 293.503 164.234C293.148 164.075 292.84 163.847 292.579 163.548C292.327 163.24 292.201 162.839 292.201 162.344C292.201 161.952 292.317 161.593 292.551 161.266C292.784 160.939 293.115 160.683 293.545 160.496C293.974 160.3 294.464 160.202 295.015 160.202C295.864 160.202 296.55 160.417 297.073 160.846C297.595 161.275 297.875 161.863 297.913 162.61H296.639C296.611 162.209 296.447 161.887 296.149 161.644C295.859 161.401 295.467 161.28 294.973 161.28C294.515 161.28 294.151 161.378 293.881 161.574C293.61 161.77 293.475 162.027 293.475 162.344C293.475 162.596 293.554 162.806 293.713 162.974C293.881 163.133 294.086 163.263 294.329 163.366C294.581 163.459 294.926 163.567 295.365 163.688C295.915 163.837 296.363 163.987 296.709 164.136C297.054 164.276 297.348 164.491 297.591 164.78C297.843 165.069 297.973 165.447 297.983 165.914C297.983 166.334 297.866 166.712 297.633 167.048C297.399 167.384 297.068 167.65 296.639 167.846C296.219 168.033 295.733 168.126 295.183 168.126ZM300.439 159.082C300.196 159.082 299.991 158.998 299.823 158.83C299.655 158.662 299.571 158.457 299.571 158.214C299.571 157.971 299.655 157.766 299.823 157.598C299.991 157.43 300.196 157.346 300.439 157.346C300.672 157.346 300.868 157.43 301.027 157.598C301.195 157.766 301.279 157.971 301.279 158.214C301.279 158.457 301.195 158.662 301.027 158.83C300.868 158.998 300.672 159.082 300.439 159.082ZM301.055 160.328V168H299.781V160.328H301.055ZM302.75 164.136C302.75 163.352 302.909 162.666 303.226 162.078C303.544 161.481 303.978 161.019 304.528 160.692C305.088 160.365 305.714 160.202 306.404 160.202C307.002 160.202 307.557 160.342 308.07 160.622C308.584 160.893 308.976 161.252 309.246 161.7V157.64H310.534V168H309.246V166.558C308.994 167.015 308.621 167.393 308.126 167.692C307.632 167.981 307.053 168.126 306.39 168.126C305.709 168.126 305.088 167.958 304.528 167.622C303.978 167.286 303.544 166.815 303.226 166.208C302.909 165.601 302.75 164.911 302.75 164.136ZM309.246 164.15C309.246 163.571 309.13 163.067 308.896 162.638C308.663 162.209 308.346 161.882 307.944 161.658C307.552 161.425 307.118 161.308 306.642 161.308C306.166 161.308 305.732 161.42 305.34 161.644C304.948 161.868 304.636 162.195 304.402 162.624C304.169 163.053 304.052 163.557 304.052 164.136C304.052 164.724 304.169 165.237 304.402 165.676C304.636 166.105 304.948 166.437 305.34 166.67C305.732 166.894 306.166 167.006 306.642 167.006C307.118 167.006 307.552 166.894 307.944 166.67C308.346 166.437 308.663 166.105 308.896 165.676C309.13 165.237 309.246 164.729 309.246 164.15ZM319.687 163.87C319.687 164.113 319.673 164.369 319.645 164.64H313.513C313.56 165.396 313.817 165.989 314.283 166.418C314.759 166.838 315.333 167.048 316.005 167.048C316.556 167.048 317.013 166.922 317.377 166.67C317.751 166.409 318.012 166.063 318.161 165.634H319.533C319.328 166.371 318.917 166.973 318.301 167.44C317.685 167.897 316.92 168.126 316.005 168.126C315.277 168.126 314.624 167.963 314.045 167.636C313.476 167.309 313.028 166.847 312.701 166.25C312.375 165.643 312.211 164.943 312.211 164.15C312.211 163.357 312.37 162.661 312.687 162.064C313.005 161.467 313.448 161.009 314.017 160.692C314.596 160.365 315.259 160.202 316.005 160.202C316.733 160.202 317.377 160.361 317.937 160.678C318.497 160.995 318.927 161.434 319.225 161.994C319.533 162.545 319.687 163.17 319.687 163.87ZM318.371 163.604C318.371 163.119 318.264 162.703 318.049 162.358C317.835 162.003 317.541 161.737 317.167 161.56C316.803 161.373 316.397 161.28 315.949 161.28C315.305 161.28 314.755 161.485 314.297 161.896C313.849 162.307 313.593 162.876 313.527 163.604H318.371Z" fill="white"/>
<rect y="147" width="82.8" height="30.1538" fill="#FF2E2E"/>
<path d="M22.4778 165.83H18.2218L17.4378 168H16.0938L19.6218 158.298H21.0918L24.6058 168H23.2618L22.4778 165.83ZM22.1138 164.794L20.3498 159.866L18.5858 164.794H22.1138ZM26.8014 159.082C26.5588 159.082 26.3534 158.998 26.1854 158.83C26.0174 158.662 25.9334 158.457 25.9334 158.214C25.9334 157.971 26.0174 157.766 26.1854 157.598C26.3534 157.43 26.5588 157.346 26.8014 157.346C27.0348 157.346 27.2308 157.43 27.3894 157.598C27.5574 157.766 27.6414 157.971 27.6414 158.214C27.6414 158.457 27.5574 158.662 27.3894 158.83C27.2308 158.998 27.0348 159.082 26.8014 159.082ZM27.4174 160.328V168H26.1434V160.328H27.4174ZM30.8627 161.574C31.0867 161.135 31.4041 160.795 31.8147 160.552C32.2347 160.309 32.7434 160.188 33.3407 160.188V161.504H33.0047C31.5767 161.504 30.8627 162.279 30.8627 163.828V168H29.5887V160.328H30.8627V161.574ZM41.2598 168.126C40.6718 168.126 40.1445 168.028 39.6778 167.832C39.2112 167.627 38.8425 167.347 38.5718 166.992C38.3012 166.628 38.1518 166.213 38.1238 165.746H39.4398C39.4772 166.129 39.6545 166.441 39.9718 166.684C40.2985 166.927 40.7232 167.048 41.2458 167.048C41.7312 167.048 42.1138 166.941 42.3938 166.726C42.6738 166.511 42.8138 166.241 42.8138 165.914C42.8138 165.578 42.6645 165.331 42.3658 165.172C42.0672 165.004 41.6052 164.841 40.9798 164.682C40.4105 164.533 39.9438 164.383 39.5798 164.234C39.2252 164.075 38.9172 163.847 38.6558 163.548C38.4038 163.24 38.2778 162.839 38.2778 162.344C38.2778 161.952 38.3945 161.593 38.6278 161.266C38.8612 160.939 39.1925 160.683 39.6218 160.496C40.0512 160.3 40.5412 160.202 41.0918 160.202C41.9412 160.202 42.6272 160.417 43.1498 160.846C43.6725 161.275 43.9525 161.863 43.9898 162.61H42.7158C42.6878 162.209 42.5245 161.887 42.2258 161.644C41.9365 161.401 41.5445 161.28 41.0498 161.28C40.5925 161.28 40.2285 161.378 39.9578 161.574C39.6872 161.77 39.5518 162.027 39.5518 162.344C39.5518 162.596 39.6312 162.806 39.7898 162.974C39.9578 163.133 40.1632 163.263 40.4058 163.366C40.6578 163.459 41.0032 163.567 41.4418 163.688C41.9925 163.837 42.4405 163.987 42.7858 164.136C43.1312 164.276 43.4252 164.491 43.6678 164.78C43.9198 165.069 44.0505 165.447 44.0598 165.914C44.0598 166.334 43.9432 166.712 43.7098 167.048C43.4765 167.384 43.1452 167.65 42.7158 167.846C42.2958 168.033 41.8105 168.126 41.2598 168.126ZM46.5163 159.082C46.2736 159.082 46.0683 158.998 45.9003 158.83C45.7323 158.662 45.6483 158.457 45.6483 158.214C45.6483 157.971 45.7323 157.766 45.9003 157.598C46.0683 157.43 46.2736 157.346 46.5163 157.346C46.7496 157.346 46.9456 157.43 47.1043 157.598C47.2723 157.766 47.3563 157.971 47.3563 158.214C47.3563 158.457 47.2723 158.662 47.1043 158.83C46.9456 158.998 46.7496 159.082 46.5163 159.082ZM47.1323 160.328V168H45.8583V160.328H47.1323ZM48.8276 164.136C48.8276 163.352 48.9863 162.666 49.3036 162.078C49.6209 161.481 50.0549 161.019 50.6056 160.692C51.1656 160.365 51.7909 160.202 52.4816 160.202C53.0789 160.202 53.6343 160.342 54.1476 160.622C54.6609 160.893 55.0529 161.252 55.3236 161.7V157.64H56.6116V168H55.3236V166.558C55.0716 167.015 54.6983 167.393 54.2036 167.692C53.7089 167.981 53.1303 168.126 52.4676 168.126C51.7863 168.126 51.1656 167.958 50.6056 167.622C50.0549 167.286 49.6209 166.815 49.3036 166.208C48.9863 165.601 48.8276 164.911 48.8276 164.136ZM55.3236 164.15C55.3236 163.571 55.2069 163.067 54.9736 162.638C54.7403 162.209 54.4229 161.882 54.0216 161.658C53.6296 161.425 53.1956 161.308 52.7196 161.308C52.2436 161.308 51.8096 161.42 51.4176 161.644C51.0256 161.868 50.7129 162.195 50.4796 162.624C50.2463 163.053 50.1296 163.557 50.1296 164.136C50.1296 164.724 50.2463 165.237 50.4796 165.676C50.7129 166.105 51.0256 166.437 51.4176 166.67C51.8096 166.894 52.2436 167.006 52.7196 167.006C53.1956 167.006 53.6296 166.894 54.0216 166.67C54.4229 166.437 54.7403 166.105 54.9736 165.676C55.2069 165.237 55.3236 164.729 55.3236 164.15ZM65.7645 163.87C65.7645 164.113 65.7505 164.369 65.7225 164.64H59.5905C59.6372 165.396 59.8939 165.989 60.3605 166.418C60.8365 166.838 61.4105 167.048 62.0825 167.048C62.6332 167.048 63.0905 166.922 63.4545 166.67C63.8279 166.409 64.0892 166.063 64.2385 165.634H65.6105C65.4052 166.371 64.9945 166.973 64.3785 167.44C63.7625 167.897 62.9972 168.126 62.0825 168.126C61.3545 168.126 60.7012 167.963 60.1225 167.636C59.5532 167.309 59.1052 166.847 58.7785 166.25C58.4519 165.643 58.2885 164.943 58.2885 164.15C58.2885 163.357 58.4472 162.661 58.7645 162.064C59.0819 161.467 59.5252 161.009 60.0945 160.692C60.6732 160.365 61.3359 160.202 62.0825 160.202C62.8105 160.202 63.4545 160.361 64.0145 160.678C64.5745 160.995 65.0039 161.434 65.3025 161.994C65.6105 162.545 65.7645 163.17 65.7645 163.87ZM64.4485 163.604C64.4485 163.119 64.3412 162.703 64.1265 162.358C63.9119 162.003 63.6179 161.737 63.2445 161.56C62.8805 161.373 62.4745 161.28 62.0265 161.28C61.3825 161.28 60.8319 161.485 60.3745 161.896C59.9265 162.307 59.6699 162.876 59.6045 163.604H64.4485Z" fill="white"/>
<path d="M194.802 226.175C194.158 226.175 193.58 226.063 193.066 225.839C192.562 225.606 192.166 225.288 191.876 224.887C191.587 224.476 191.438 224.005 191.428 223.473H192.786C192.833 223.93 193.02 224.318 193.346 224.635C193.682 224.943 194.168 225.097 194.802 225.097C195.409 225.097 195.885 224.948 196.23 224.649C196.585 224.341 196.762 223.949 196.762 223.473C196.762 223.1 196.66 222.796 196.454 222.563C196.249 222.33 195.992 222.152 195.684 222.031C195.376 221.91 194.961 221.779 194.438 221.639C193.794 221.471 193.276 221.303 192.884 221.135C192.502 220.967 192.17 220.706 191.89 220.351C191.62 219.987 191.484 219.502 191.484 218.895C191.484 218.363 191.62 217.892 191.89 217.481C192.161 217.07 192.539 216.753 193.024 216.529C193.519 216.305 194.084 216.193 194.718 216.193C195.633 216.193 196.38 216.422 196.958 216.879C197.546 217.336 197.878 217.943 197.952 218.699H196.552C196.506 218.326 196.31 217.999 195.964 217.719C195.619 217.43 195.162 217.285 194.592 217.285C194.06 217.285 193.626 217.425 193.29 217.705C192.954 217.976 192.786 218.358 192.786 218.853C192.786 219.208 192.884 219.497 193.08 219.721C193.286 219.945 193.533 220.118 193.822 220.239C194.121 220.351 194.536 220.482 195.068 220.631C195.712 220.808 196.23 220.986 196.622 221.163C197.014 221.331 197.35 221.597 197.63 221.961C197.91 222.316 198.05 222.801 198.05 223.417C198.05 223.893 197.924 224.341 197.672 224.761C197.42 225.181 197.047 225.522 196.552 225.783C196.058 226.044 195.474 226.175 194.802 226.175ZM203.733 218.265C204.312 218.265 204.834 218.391 205.301 218.643C205.768 218.886 206.132 219.254 206.393 219.749C206.664 220.244 206.799 220.846 206.799 221.555V226.077H205.539V221.737C205.539 220.972 205.348 220.388 204.965 219.987C204.582 219.576 204.06 219.371 203.397 219.371C202.725 219.371 202.188 219.581 201.787 220.001C201.395 220.421 201.199 221.032 201.199 221.835V226.077H199.925V215.717H201.199V219.497C201.451 219.105 201.796 218.802 202.235 218.587C202.683 218.372 203.182 218.265 203.733 218.265ZM208.404 222.213C208.404 221.429 208.563 220.743 208.88 220.155C209.197 219.558 209.631 219.096 210.182 218.769C210.742 218.442 211.363 218.279 212.044 218.279C212.716 218.279 213.299 218.424 213.794 218.713C214.289 219.002 214.657 219.366 214.9 219.805V218.405H216.188V226.077H214.9V224.649C214.648 225.097 214.27 225.47 213.766 225.769C213.271 226.058 212.693 226.203 212.03 226.203C211.349 226.203 210.733 226.035 210.182 225.699C209.631 225.363 209.197 224.892 208.88 224.285C208.563 223.678 208.404 222.988 208.404 222.213ZM214.9 222.227C214.9 221.648 214.783 221.144 214.55 220.715C214.317 220.286 213.999 219.959 213.598 219.735C213.206 219.502 212.772 219.385 212.296 219.385C211.82 219.385 211.386 219.497 210.994 219.721C210.602 219.945 210.289 220.272 210.056 220.701C209.823 221.13 209.706 221.634 209.706 222.213C209.706 222.801 209.823 223.314 210.056 223.753C210.289 224.182 210.602 224.514 210.994 224.747C211.386 224.971 211.82 225.083 212.296 225.083C212.772 225.083 213.206 224.971 213.598 224.747C213.999 224.514 214.317 224.182 214.55 223.753C214.783 223.314 214.9 222.806 214.9 222.227ZM221.463 219.455H219.853V226.077H218.579V219.455H217.585V218.405H218.579V217.859C218.579 217 218.798 216.375 219.237 215.983C219.685 215.582 220.399 215.381 221.379 215.381V216.445C220.819 216.445 220.422 216.557 220.189 216.781C219.965 216.996 219.853 217.355 219.853 217.859V218.405H221.463V219.455ZM224.502 219.455V223.977C224.502 224.35 224.582 224.616 224.74 224.775C224.899 224.924 225.174 224.999 225.566 224.999H226.504V226.077H225.356C224.647 226.077 224.115 225.914 223.76 225.587C223.406 225.26 223.228 224.724 223.228 223.977V219.455H222.234V218.405H223.228V216.473H224.502V218.405H226.504V219.455H224.502Z" fill="black"/>
<path d="M135.502 116.098C134.597 116.098 133.771 115.888 133.024 115.468C132.277 115.039 131.685 114.446 131.246 113.69C130.817 112.925 130.602 112.066 130.602 111.114C130.602 110.162 130.817 109.308 131.246 108.552C131.685 107.787 132.277 107.194 133.024 106.774C133.771 106.345 134.597 106.13 135.502 106.13C136.417 106.13 137.247 106.345 137.994 106.774C138.741 107.194 139.329 107.782 139.758 108.538C140.187 109.294 140.402 110.153 140.402 111.114C140.402 112.075 140.187 112.934 139.758 113.69C139.329 114.446 138.741 115.039 137.994 115.468C137.247 115.888 136.417 116.098 135.502 116.098ZM135.502 114.992C136.183 114.992 136.795 114.833 137.336 114.516C137.887 114.199 138.316 113.746 138.624 113.158C138.941 112.57 139.1 111.889 139.1 111.114C139.1 110.33 138.941 109.649 138.624 109.07C138.316 108.482 137.891 108.029 137.35 107.712C136.809 107.395 136.193 107.236 135.502 107.236C134.811 107.236 134.195 107.395 133.654 107.712C133.113 108.029 132.683 108.482 132.366 109.07C132.058 109.649 131.904 110.33 131.904 111.114C131.904 111.889 132.058 112.57 132.366 113.158C132.683 113.746 133.113 114.199 133.654 114.516C134.205 114.833 134.821 114.992 135.502 114.992ZM142.742 107.082C142.499 107.082 142.294 106.998 142.126 106.83C141.958 106.662 141.874 106.457 141.874 106.214C141.874 105.971 141.958 105.766 142.126 105.598C142.294 105.43 142.499 105.346 142.742 105.346C142.975 105.346 143.171 105.43 143.33 105.598C143.498 105.766 143.582 105.971 143.582 106.214C143.582 106.457 143.498 106.662 143.33 106.83C143.171 106.998 142.975 107.082 142.742 107.082ZM143.358 108.328V116H142.084V108.328H143.358ZM146.803 105.64V116H145.529V105.64H146.803ZM155.801 116.098C155.157 116.098 154.578 115.986 154.065 115.762C153.561 115.529 153.164 115.211 152.875 114.81C152.586 114.399 152.436 113.928 152.427 113.396H153.785C153.832 113.853 154.018 114.241 154.345 114.558C154.681 114.866 155.166 115.02 155.801 115.02C156.408 115.02 156.884 114.871 157.229 114.572C157.584 114.264 157.761 113.872 157.761 113.396C157.761 113.023 157.658 112.719 157.453 112.486C157.248 112.253 156.991 112.075 156.683 111.954C156.375 111.833 155.96 111.702 155.437 111.562C154.793 111.394 154.275 111.226 153.883 111.058C153.5 110.89 153.169 110.629 152.889 110.274C152.618 109.91 152.483 109.425 152.483 108.818C152.483 108.286 152.618 107.815 152.889 107.404C153.16 106.993 153.538 106.676 154.023 106.452C154.518 106.228 155.082 106.116 155.717 106.116C156.632 106.116 157.378 106.345 157.957 106.802C158.545 107.259 158.876 107.866 158.951 108.622H157.551C157.504 108.249 157.308 107.922 156.963 107.642C156.618 107.353 156.16 107.208 155.591 107.208C155.059 107.208 154.625 107.348 154.289 107.628C153.953 107.899 153.785 108.281 153.785 108.776C153.785 109.131 153.883 109.42 154.079 109.644C154.284 109.868 154.532 110.041 154.821 110.162C155.12 110.274 155.535 110.405 156.067 110.554C156.711 110.731 157.229 110.909 157.621 111.086C158.013 111.254 158.349 111.52 158.629 111.884C158.909 112.239 159.049 112.724 159.049 113.34C159.049 113.816 158.923 114.264 158.671 114.684C158.419 115.104 158.046 115.445 157.551 115.706C157.056 115.967 156.473 116.098 155.801 116.098ZM167.924 111.87C167.924 112.113 167.91 112.369 167.882 112.64H161.75C161.796 113.396 162.053 113.989 162.52 114.418C162.996 114.838 163.57 115.048 164.242 115.048C164.792 115.048 165.25 114.922 165.614 114.67C165.987 114.409 166.248 114.063 166.398 113.634H167.77C167.564 114.371 167.154 114.973 166.538 115.44C165.922 115.897 165.156 116.126 164.242 116.126C163.514 116.126 162.86 115.963 162.282 115.636C161.712 115.309 161.264 114.847 160.938 114.25C160.611 113.643 160.448 112.943 160.448 112.15C160.448 111.357 160.606 110.661 160.924 110.064C161.241 109.467 161.684 109.009 162.254 108.692C162.832 108.365 163.495 108.202 164.242 108.202C164.97 108.202 165.614 108.361 166.174 108.678C166.734 108.995 167.163 109.434 167.462 109.994C167.77 110.545 167.924 111.17 167.924 111.87ZM166.608 111.604C166.608 111.119 166.5 110.703 166.286 110.358C166.071 110.003 165.777 109.737 165.404 109.56C165.04 109.373 164.634 109.28 164.186 109.28C163.542 109.28 162.991 109.485 162.534 109.896C162.086 110.307 161.829 110.876 161.764 111.604H166.608ZM169.129 112.136C169.129 111.352 169.288 110.666 169.605 110.078C169.923 109.481 170.357 109.019 170.907 108.692C171.467 108.365 172.088 108.202 172.769 108.202C173.441 108.202 174.025 108.347 174.519 108.636C175.014 108.925 175.383 109.289 175.625 109.728V108.328H176.913V116H175.625V114.572C175.373 115.02 174.995 115.393 174.491 115.692C173.997 115.981 173.418 116.126 172.755 116.126C172.074 116.126 171.458 115.958 170.907 115.622C170.357 115.286 169.923 114.815 169.605 114.208C169.288 113.601 169.129 112.911 169.129 112.136ZM175.625 112.15C175.625 111.571 175.509 111.067 175.275 110.638C175.042 110.209 174.725 109.882 174.323 109.658C173.931 109.425 173.497 109.308 173.021 109.308C172.545 109.308 172.111 109.42 171.719 109.644C171.327 109.868 171.015 110.195 170.781 110.624C170.548 111.053 170.431 111.557 170.431 112.136C170.431 112.724 170.548 113.237 170.781 113.676C171.015 114.105 171.327 114.437 171.719 114.67C172.111 114.894 172.545 115.006 173.021 115.006C173.497 115.006 173.931 114.894 174.323 114.67C174.725 114.437 175.042 114.105 175.275 113.676C175.509 113.237 175.625 112.729 175.625 112.15ZM180.34 105.64V116H179.066V105.64H180.34Z" fill="black"/>
</svg>
