<svg width="234" height="42" viewBox="0 0 234 42" fill="none" xmlns="http://www.w3.org/2000/svg">
<path d="M69.78 8.1V22H67.5V8.1H69.78ZM78.3334 10.8C79.2001 10.8 79.9734 10.98 80.6534 11.34C81.3468 11.7 81.8868 12.2333 82.2734 12.94C82.6601 13.6467 82.8534 14.5 82.8534 15.5V22H80.5934V15.84C80.5934 14.8533 80.3468 14.1 79.8534 13.58C79.3601 13.0467 78.6868 12.78 77.8334 12.78C76.9801 12.78 76.3001 13.0467 75.7934 13.58C75.3001 14.1 75.0534 14.8533 75.0534 15.84V22H72.7734V10.98H75.0534V12.24C75.4268 11.7867 75.9001 11.4333 76.4734 11.18C77.0601 10.9267 77.6801 10.8 78.3334 10.8ZM85.0017 16.44C85.0017 15.3333 85.2284 14.3533 85.6817 13.5C86.1484 12.6467 86.7751 11.9867 87.5617 11.52C88.3617 11.04 89.2484 10.8 90.2217 10.8C90.9417 10.8 91.6484 10.96 92.3417 11.28C93.0484 11.5867 93.6084 12 94.0217 12.52V7.2H96.3217V22H94.0217V20.34C93.6484 20.8733 93.1284 21.3133 92.4617 21.66C91.8084 22.0067 91.0551 22.18 90.2017 22.18C89.2417 22.18 88.3617 21.94 87.5617 21.46C86.7751 20.9667 86.1484 20.2867 85.6817 19.42C85.2284 18.54 85.0017 17.5467 85.0017 16.44ZM94.0217 16.48C94.0217 15.72 93.8617 15.06 93.5417 14.5C93.2351 13.94 92.8284 13.5133 92.3217 13.22C91.8151 12.9267 91.2684 12.78 90.6817 12.78C90.0951 12.78 89.5484 12.9267 89.0417 13.22C88.5351 13.5 88.1217 13.92 87.8017 14.48C87.4951 15.0267 87.3417 15.68 87.3417 16.44C87.3417 17.2 87.4951 17.8667 87.8017 18.44C88.1217 19.0133 88.5351 19.4533 89.0417 19.76C89.5617 20.0533 90.1084 20.2 90.6817 20.2C91.2684 20.2 91.8151 20.0533 92.3217 19.76C92.8284 19.4667 93.2351 19.04 93.5417 18.48C93.8617 17.9067 94.0217 17.24 94.0217 16.48ZM104.096 22.18C103.056 22.18 102.116 21.9467 101.276 21.48C100.436 21 99.7764 20.3333 99.2964 19.48C98.8164 18.6133 98.5764 17.6133 98.5764 16.48C98.5764 15.36 98.8231 14.3667 99.3164 13.5C99.8097 12.6333 100.483 11.9667 101.336 11.5C102.19 11.0333 103.143 10.8 104.196 10.8C105.25 10.8 106.203 11.0333 107.056 11.5C107.91 11.9667 108.583 12.6333 109.076 13.5C109.57 14.3667 109.816 15.36 109.816 16.48C109.816 17.6 109.563 18.5933 109.056 19.46C108.55 20.3267 107.856 21 106.976 21.48C106.11 21.9467 105.15 22.18 104.096 22.18ZM104.096 20.2C104.683 20.2 105.23 20.06 105.736 19.78C106.256 19.5 106.676 19.08 106.996 18.52C107.316 17.96 107.476 17.28 107.476 16.48C107.476 15.68 107.323 15.0067 107.016 14.46C106.71 13.9 106.303 13.48 105.796 13.2C105.29 12.92 104.743 12.78 104.156 12.78C103.57 12.78 103.023 12.92 102.516 13.2C102.023 13.48 101.63 13.9 101.336 14.46C101.043 15.0067 100.896 15.68 100.896 16.48C100.896 17.6667 101.196 18.5867 101.796 19.24C102.41 19.88 103.176 20.2 104.096 20.2ZM117.63 10.8C118.497 10.8 119.27 10.98 119.95 11.34C120.644 11.7 121.184 12.2333 121.57 12.94C121.957 13.6467 122.15 14.5 122.15 15.5V22H119.89V15.84C119.89 14.8533 119.644 14.1 119.15 13.58C118.657 13.0467 117.984 12.78 117.13 12.78C116.277 12.78 115.597 13.0467 115.09 13.58C114.597 14.1 114.35 14.8533 114.35 15.84V22H112.07V10.98H114.35V12.24C114.724 11.7867 115.197 11.4333 115.77 11.18C116.357 10.9267 116.977 10.8 117.63 10.8ZM135.159 16.22C135.159 16.6333 135.132 17.0067 135.079 17.34H126.659C126.725 18.22 127.052 18.9267 127.639 19.46C128.225 19.9933 128.945 20.26 129.799 20.26C131.025 20.26 131.892 19.7467 132.399 18.72H134.859C134.525 19.7333 133.919 20.5667 133.039 21.22C132.172 21.86 131.092 22.18 129.799 22.18C128.745 22.18 127.799 21.9467 126.959 21.48C126.132 21 125.479 20.3333 124.999 19.48C124.532 18.6133 124.299 17.6133 124.299 16.48C124.299 15.3467 124.525 14.3533 124.979 13.5C125.445 12.6333 126.092 11.9667 126.919 11.5C127.759 11.0333 128.719 10.8 129.799 10.8C130.839 10.8 131.765 11.0267 132.579 11.48C133.392 11.9333 134.025 12.5733 134.479 13.4C134.932 14.2133 135.159 15.1533 135.159 16.22ZM132.779 15.5C132.765 14.66 132.465 13.9867 131.879 13.48C131.292 12.9733 130.565 12.72 129.699 12.72C128.912 12.72 128.239 12.9733 127.679 13.48C127.119 13.9733 126.785 14.6467 126.679 15.5H132.779ZM141.402 22.18C140.536 22.18 139.756 22.0267 139.062 21.72C138.382 21.4 137.842 20.9733 137.442 20.44C137.042 19.8933 136.829 19.2867 136.802 18.62H139.162C139.202 19.0867 139.422 19.48 139.822 19.8C140.236 20.1067 140.749 20.26 141.362 20.26C142.002 20.26 142.496 20.14 142.842 19.9C143.202 19.6467 143.382 19.3267 143.382 18.94C143.382 18.5267 143.182 18.22 142.782 18.02C142.396 17.82 141.776 17.6 140.922 17.36C140.096 17.1333 139.422 16.9133 138.902 16.7C138.382 16.4867 137.929 16.16 137.542 15.72C137.169 15.28 136.982 14.7 136.982 13.98C136.982 13.3933 137.156 12.86 137.502 12.38C137.849 11.8867 138.342 11.5 138.982 11.22C139.636 10.94 140.382 10.8 141.222 10.8C142.476 10.8 143.482 11.12 144.242 11.76C145.016 12.3867 145.429 13.2467 145.482 14.34H143.202C143.162 13.8467 142.962 13.4533 142.602 13.16C142.242 12.8667 141.756 12.72 141.142 12.72C140.542 12.72 140.082 12.8333 139.762 13.06C139.442 13.2867 139.282 13.5867 139.282 13.96C139.282 14.2533 139.389 14.5 139.602 14.7C139.816 14.9 140.076 15.06 140.382 15.18C140.689 15.2867 141.142 15.4267 141.742 15.6C142.542 15.8133 143.196 16.0333 143.702 16.26C144.222 16.4733 144.669 16.7933 145.042 17.22C145.416 17.6467 145.609 18.2133 145.622 18.92C145.622 19.5467 145.449 20.1067 145.102 20.6C144.756 21.0933 144.262 21.48 143.622 21.76C142.996 22.04 142.256 22.18 141.402 22.18ZM149.246 9.52C148.833 9.52 148.486 9.38 148.206 9.1C147.926 8.82 147.786 8.47333 147.786 8.06C147.786 7.64667 147.926 7.3 148.206 7.02C148.486 6.74 148.833 6.6 149.246 6.6C149.646 6.6 149.986 6.74 150.266 7.02C150.546 7.3 150.686 7.64667 150.686 8.06C150.686 8.47333 150.546 8.82 150.266 9.1C149.986 9.38 149.646 9.52 149.246 9.52ZM150.366 10.98V22H148.086V10.98H150.366ZM152.599 16.44C152.599 15.3333 152.826 14.3533 153.279 13.5C153.746 12.6467 154.373 11.9867 155.159 11.52C155.959 11.04 156.839 10.8 157.799 10.8C158.666 10.8 159.419 10.9733 160.059 11.32C160.713 11.6533 161.233 12.0733 161.619 12.58V10.98H163.919V22H161.619V20.36C161.233 20.88 160.706 21.3133 160.039 21.66C159.373 22.0067 158.613 22.18 157.759 22.18C156.813 22.18 155.946 21.94 155.159 21.46C154.373 20.9667 153.746 20.2867 153.279 19.42C152.826 18.54 152.599 17.5467 152.599 16.44ZM161.619 16.48C161.619 15.72 161.459 15.06 161.139 14.5C160.833 13.94 160.426 13.5133 159.919 13.22C159.413 12.9267 158.866 12.78 158.279 12.78C157.693 12.78 157.146 12.9267 156.639 13.22C156.133 13.5 155.719 13.92 155.399 14.48C155.093 15.0267 154.939 15.68 154.939 16.44C154.939 17.2 155.093 17.8667 155.399 18.44C155.719 19.0133 156.133 19.4533 156.639 19.76C157.159 20.0533 157.706 20.2 158.279 20.2C158.866 20.2 159.413 20.0533 159.919 19.76C160.426 19.4667 160.833 19.04 161.139 18.48C161.459 17.9067 161.619 17.24 161.619 16.48ZM182.169 12.1C181.809 11.4067 181.309 10.8867 180.669 10.54C180.029 10.18 179.289 10 178.449 10C177.529 10 176.709 10.2067 175.989 10.62C175.269 11.0333 174.703 11.62 174.289 12.38C173.889 13.14 173.689 14.02 173.689 15.02C173.689 16.02 173.889 16.9067 174.289 17.68C174.703 18.44 175.269 19.0267 175.989 19.44C176.709 19.8533 177.529 20.06 178.449 20.06C179.689 20.06 180.696 19.7133 181.469 19.02C182.243 18.3267 182.716 17.3867 182.889 16.2H177.669V14.38H185.329V16.16C185.183 17.24 184.796 18.2333 184.169 19.14C183.556 20.0467 182.749 20.7733 181.749 21.32C180.763 21.8533 179.663 22.12 178.449 22.12C177.143 22.12 175.949 21.82 174.869 21.22C173.789 20.6067 172.929 19.76 172.289 18.68C171.663 17.6 171.349 16.38 171.349 15.02C171.349 13.66 171.663 12.44 172.289 11.36C172.929 10.28 173.789 9.44 174.869 8.84C175.963 8.22667 177.156 7.92 178.449 7.92C179.929 7.92 181.243 8.28667 182.389 9.02C183.549 9.74 184.389 10.7667 184.909 12.1H182.169ZM189.858 12.58C190.191 12.02 190.631 11.5867 191.178 11.28C191.738 10.96 192.398 10.8 193.158 10.8V13.16H192.578C191.685 13.16 191.005 13.3867 190.538 13.84C190.085 14.2933 189.858 15.08 189.858 16.2V22H187.578V10.98H189.858V12.58ZM200.034 22.18C198.994 22.18 198.054 21.9467 197.214 21.48C196.374 21 195.714 20.3333 195.234 19.48C194.754 18.6133 194.514 17.6133 194.514 16.48C194.514 15.36 194.761 14.3667 195.254 13.5C195.747 12.6333 196.421 11.9667 197.274 11.5C198.127 11.0333 199.081 10.8 200.134 10.8C201.187 10.8 202.141 11.0333 202.994 11.5C203.847 11.9667 204.521 12.6333 205.014 13.5C205.507 14.3667 205.754 15.36 205.754 16.48C205.754 17.6 205.501 18.5933 204.994 19.46C204.487 20.3267 203.794 21 202.914 21.48C202.047 21.9467 201.087 22.18 200.034 22.18ZM200.034 20.2C200.621 20.2 201.167 20.06 201.674 19.78C202.194 19.5 202.614 19.08 202.934 18.52C203.254 17.96 203.414 17.28 203.414 16.48C203.414 15.68 203.261 15.0067 202.954 14.46C202.647 13.9 202.241 13.48 201.734 13.2C201.227 12.92 200.681 12.78 200.094 12.78C199.507 12.78 198.961 12.92 198.454 13.2C197.961 13.48 197.567 13.9 197.274 14.46C196.981 15.0067 196.834 15.68 196.834 16.48C196.834 17.6667 197.134 18.5867 197.734 19.24C198.347 19.88 199.114 20.2 200.034 20.2ZM217.988 10.98V22H215.708V20.7C215.348 21.1533 214.874 21.5133 214.288 21.78C213.714 22.0333 213.101 22.16 212.448 22.16C211.581 22.16 210.801 21.98 210.108 21.62C209.428 21.26 208.888 20.7267 208.488 20.02C208.101 19.3133 207.908 18.46 207.908 17.46V10.98H210.168V17.12C210.168 18.1067 210.414 18.8667 210.908 19.4C211.401 19.92 212.074 20.18 212.928 20.18C213.781 20.18 214.454 19.92 214.948 19.4C215.454 18.8667 215.708 18.1067 215.708 17.12V10.98H217.988ZM223.276 12.6C223.663 12.0933 224.189 11.6667 224.856 11.32C225.523 10.9733 226.276 10.8 227.116 10.8C228.076 10.8 228.949 11.04 229.736 11.52C230.536 11.9867 231.163 12.6467 231.616 13.5C232.069 14.3533 232.296 15.3333 232.296 16.44C232.296 17.5467 232.069 18.54 231.616 19.42C231.163 20.2867 230.536 20.9667 229.736 21.46C228.949 21.94 228.076 22.18 227.116 22.18C226.276 22.18 225.529 22.0133 224.876 21.68C224.223 21.3333 223.689 20.9067 223.276 20.4V27.24H220.996V10.98H223.276V12.6ZM229.976 16.44C229.976 15.68 229.816 15.0267 229.496 14.48C229.189 13.92 228.776 13.5 228.256 13.22C227.749 12.9267 227.203 12.78 226.616 12.78C226.043 12.78 225.496 12.9267 224.976 13.22C224.469 13.5133 224.056 13.94 223.736 14.5C223.429 15.06 223.276 15.72 223.276 16.48C223.276 17.24 223.429 17.9067 223.736 18.48C224.056 19.04 224.469 19.4667 224.976 19.76C225.496 20.0533 226.043 20.2 226.616 20.2C227.203 20.2 227.749 20.0533 228.256 19.76C228.776 19.4533 229.189 19.0133 229.496 18.44C229.816 17.8667 229.976 17.2 229.976 16.44Z" fill="#FF2E2E"/>
<path d="M73.356 38.512L71.892 36.928C71.532 37.032 71.136 37.084 70.704 37.084C69.928 37.084 69.212 36.904 68.556 36.544C67.908 36.176 67.392 35.668 67.008 35.02C66.632 34.364 66.444 33.628 66.444 32.812C66.444 31.996 66.632 31.264 67.008 30.616C67.392 29.968 67.908 29.464 68.556 29.104C69.212 28.736 69.928 28.552 70.704 28.552C71.488 28.552 72.204 28.736 72.852 29.104C73.508 29.464 74.024 29.968 74.4 30.616C74.776 31.264 74.964 31.996 74.964 32.812C74.964 33.58 74.796 34.276 74.46 34.9C74.132 35.516 73.676 36.012 73.092 36.388L75.096 38.512H73.356ZM67.848 32.812C67.848 33.428 67.968 33.972 68.208 34.444C68.456 34.908 68.796 35.268 69.228 35.524C69.66 35.772 70.152 35.896 70.704 35.896C71.256 35.896 71.748 35.772 72.18 35.524C72.612 35.268 72.948 34.908 73.188 34.444C73.436 33.972 73.56 33.428 73.56 32.812C73.56 32.196 73.436 31.656 73.188 31.192C72.948 30.728 72.612 30.372 72.18 30.124C71.748 29.876 71.256 29.752 70.704 29.752C70.152 29.752 69.66 29.876 69.228 30.124C68.796 30.372 68.456 30.728 68.208 31.192C67.968 31.656 67.848 32.196 67.848 32.812ZM82.3333 30.388V37H80.9653V36.22C80.7493 36.492 80.4653 36.708 80.1133 36.868C79.7693 37.02 79.4013 37.096 79.0093 37.096C78.4893 37.096 78.0213 36.988 77.6053 36.772C77.1973 36.556 76.8733 36.236 76.6333 35.812C76.4013 35.388 76.2853 34.876 76.2853 34.276V30.388H77.6413V34.072C77.6413 34.664 77.7893 35.12 78.0853 35.44C78.3813 35.752 78.7853 35.908 79.2973 35.908C79.8093 35.908 80.2133 35.752 80.5093 35.44C80.8133 35.12 80.9653 34.664 80.9653 34.072V30.388H82.3333ZM83.6823 33.664C83.6823 33 83.8183 32.412 84.0903 31.9C84.3703 31.388 84.7463 30.992 85.2183 30.712C85.6983 30.424 86.2263 30.28 86.8023 30.28C87.3223 30.28 87.7743 30.384 88.1583 30.592C88.5503 30.792 88.8623 31.044 89.0943 31.348V30.388H90.4743V37H89.0943V36.016C88.8623 36.328 88.5463 36.588 88.1463 36.796C87.7463 37.004 87.2903 37.108 86.7783 37.108C86.2103 37.108 85.6903 36.964 85.2183 36.676C84.7463 36.38 84.3703 35.972 84.0903 35.452C83.8183 34.924 83.6823 34.328 83.6823 33.664ZM89.0943 33.688C89.0943 33.232 88.9983 32.836 88.8063 32.5C88.6223 32.164 88.3783 31.908 88.0743 31.732C87.7703 31.556 87.4423 31.468 87.0903 31.468C86.7383 31.468 86.4103 31.556 86.1063 31.732C85.8023 31.9 85.5543 32.152 85.3623 32.488C85.1783 32.816 85.0863 33.208 85.0863 33.664C85.0863 34.12 85.1783 34.52 85.3623 34.864C85.5543 35.208 85.8023 35.472 86.1063 35.656C86.4183 35.832 86.7463 35.92 87.0903 35.92C87.4423 35.92 87.7703 35.832 88.0743 35.656C88.3783 35.48 88.6223 35.224 88.8063 34.888C88.9983 34.544 89.0943 34.144 89.0943 33.688ZM93.6391 28.12V37H92.2711V28.12H93.6391ZM96.1312 29.512C95.8832 29.512 95.6752 29.428 95.5072 29.26C95.3392 29.092 95.2552 28.884 95.2552 28.636C95.2552 28.388 95.3392 28.18 95.5072 28.012C95.6752 27.844 95.8832 27.76 96.1312 27.76C96.3712 27.76 96.5752 27.844 96.7432 28.012C96.9112 28.18 96.9952 28.388 96.9952 28.636C96.9952 28.884 96.9112 29.092 96.7432 29.26C96.5752 29.428 96.3712 29.512 96.1312 29.512ZM96.8032 30.388V37H95.4352V30.388H96.8032ZM100.195 31.504V35.164C100.195 35.412 100.251 35.592 100.363 35.704C100.483 35.808 100.683 35.86 100.963 35.86H101.803V37H100.723C100.107 37 99.6352 36.856 99.3072 36.568C98.9792 36.28 98.8152 35.812 98.8152 35.164V31.504H98.0352V30.388H98.8152V28.744H100.195V30.388H101.803V31.504H100.195ZM109.016 30.388L104.96 40.108H103.544L104.888 36.892L102.284 30.388H103.808L105.668 35.428L107.6 30.388H109.016ZM113.862 29.512C113.614 29.512 113.406 29.428 113.238 29.26C113.07 29.092 112.986 28.884 112.986 28.636C112.986 28.388 113.07 28.18 113.238 28.012C113.406 27.844 113.614 27.76 113.862 27.76C114.102 27.76 114.306 27.844 114.474 28.012C114.642 28.18 114.726 28.388 114.726 28.636C114.726 28.884 114.642 29.092 114.474 29.26C114.306 29.428 114.102 29.512 113.862 29.512ZM114.534 30.388V37H113.166V30.388H114.534ZM118.73 37.108C118.21 37.108 117.742 37.016 117.326 36.832C116.918 36.64 116.594 36.384 116.354 36.064C116.114 35.736 115.986 35.372 115.97 34.972H117.386C117.41 35.252 117.542 35.488 117.782 35.68C118.03 35.864 118.338 35.956 118.706 35.956C119.09 35.956 119.386 35.884 119.594 35.74C119.81 35.588 119.918 35.396 119.918 35.164C119.918 34.916 119.798 34.732 119.558 34.612C119.326 34.492 118.954 34.36 118.442 34.216C117.946 34.08 117.542 33.948 117.23 33.82C116.918 33.692 116.646 33.496 116.414 33.232C116.19 32.968 116.078 32.62 116.078 32.188C116.078 31.836 116.182 31.516 116.39 31.228C116.598 30.932 116.894 30.7 117.278 30.532C117.67 30.364 118.118 30.28 118.622 30.28C119.374 30.28 119.978 30.472 120.434 30.856C120.898 31.232 121.146 31.748 121.178 32.404H119.81C119.786 32.108 119.666 31.872 119.45 31.696C119.234 31.52 118.942 31.432 118.574 31.432C118.214 31.432 117.938 31.5 117.746 31.636C117.554 31.772 117.458 31.952 117.458 32.176C117.458 32.352 117.522 32.5 117.65 32.62C117.778 32.74 117.934 32.836 118.118 32.908C118.302 32.972 118.574 33.056 118.934 33.16C119.414 33.288 119.806 33.42 120.11 33.556C120.422 33.684 120.69 33.876 120.914 34.132C121.138 34.388 121.254 34.728 121.262 35.152C121.262 35.528 121.158 35.864 120.95 36.16C120.742 36.456 120.446 36.688 120.062 36.856C119.686 37.024 119.242 37.108 118.73 37.108ZM129.661 37.084C128.885 37.084 128.169 36.904 127.513 36.544C126.865 36.176 126.349 35.668 125.965 35.02C125.589 34.364 125.401 33.628 125.401 32.812C125.401 31.996 125.589 31.264 125.965 30.616C126.349 29.968 126.865 29.464 127.513 29.104C128.169 28.736 128.885 28.552 129.661 28.552C130.445 28.552 131.161 28.736 131.809 29.104C132.465 29.464 132.981 29.968 133.357 30.616C133.733 31.264 133.921 31.996 133.921 32.812C133.921 33.628 133.733 34.364 133.357 35.02C132.981 35.668 132.465 36.176 131.809 36.544C131.161 36.904 130.445 37.084 129.661 37.084ZM129.661 35.896C130.213 35.896 130.705 35.772 131.137 35.524C131.569 35.268 131.905 34.908 132.145 34.444C132.393 33.972 132.517 33.428 132.517 32.812C132.517 32.196 132.393 31.656 132.145 31.192C131.905 30.728 131.569 30.372 131.137 30.124C130.705 29.876 130.213 29.752 129.661 29.752C129.109 29.752 128.617 29.876 128.185 30.124C127.753 30.372 127.413 30.728 127.165 31.192C126.925 31.656 126.805 32.196 126.805 32.812C126.805 33.428 126.925 33.972 127.165 34.444C127.413 34.908 127.753 35.268 128.185 35.524C128.617 35.772 129.109 35.896 129.661 35.896ZM141.255 30.388V37H139.887V36.22C139.671 36.492 139.387 36.708 139.035 36.868C138.691 37.02 138.323 37.096 137.931 37.096C137.411 37.096 136.943 36.988 136.527 36.772C136.119 36.556 135.795 36.236 135.555 35.812C135.323 35.388 135.207 34.876 135.207 34.276V30.388H136.563V34.072C136.563 34.664 136.711 35.12 137.007 35.44C137.303 35.752 137.707 35.908 138.219 35.908C138.731 35.908 139.135 35.752 139.431 35.44C139.735 35.12 139.887 34.664 139.887 34.072V30.388H141.255ZM144.428 31.348C144.628 31.012 144.892 30.752 145.22 30.568C145.556 30.376 145.952 30.28 146.408 30.28V31.696H146.06C145.524 31.696 145.116 31.832 144.836 32.104C144.564 32.376 144.428 32.848 144.428 33.52V37H143.06V30.388H144.428V31.348ZM152.151 28.66V37H150.783V28.66H152.151ZM153.491 33.664C153.491 33 153.627 32.412 153.899 31.9C154.179 31.388 154.555 30.992 155.027 30.712C155.507 30.424 156.039 30.28 156.623 30.28C157.055 30.28 157.479 30.376 157.895 30.568C158.319 30.752 158.655 31 158.903 31.312V28.12H160.283V37H158.903V36.004C158.679 36.324 158.367 36.588 157.967 36.796C157.575 37.004 157.123 37.108 156.611 37.108C156.035 37.108 155.507 36.964 155.027 36.676C154.555 36.38 154.179 35.972 153.899 35.452C153.627 34.924 153.491 34.328 153.491 33.664ZM158.903 33.688C158.903 33.232 158.807 32.836 158.615 32.5C158.431 32.164 158.187 31.908 157.883 31.732C157.579 31.556 157.251 31.468 156.899 31.468C156.547 31.468 156.219 31.556 155.915 31.732C155.611 31.9 155.363 32.152 155.171 32.488C154.987 32.816 154.895 33.208 154.895 33.664C154.895 34.12 154.987 34.52 155.171 34.864C155.363 35.208 155.611 35.472 155.915 35.656C156.227 35.832 156.555 35.92 156.899 35.92C157.251 35.92 157.579 35.832 157.883 35.656C158.187 35.48 158.431 35.224 158.615 34.888C158.807 34.544 158.903 34.144 158.903 33.688ZM168.14 33.532C168.14 33.78 168.124 34.004 168.092 34.204H163.04C163.08 34.732 163.276 35.156 163.628 35.476C163.98 35.796 164.412 35.956 164.924 35.956C165.66 35.956 166.18 35.648 166.484 35.032H167.96C167.76 35.64 167.396 36.14 166.868 36.532C166.348 36.916 165.7 37.108 164.924 37.108C164.292 37.108 163.724 36.968 163.22 36.688C162.724 36.4 162.332 36 162.044 35.488C161.764 34.968 161.624 34.368 161.624 33.688C161.624 33.008 161.76 32.412 162.032 31.9C162.312 31.38 162.7 30.98 163.196 30.7C163.7 30.42 164.276 30.28 164.924 30.28C165.548 30.28 166.104 30.416 166.592 30.688C167.08 30.96 167.46 31.344 167.732 31.84C168.004 32.328 168.14 32.892 168.14 33.532ZM166.712 33.1C166.704 32.596 166.524 32.192 166.172 31.888C165.82 31.584 165.384 31.432 164.864 31.432C164.392 31.432 163.988 31.584 163.652 31.888C163.316 32.184 163.116 32.588 163.052 33.1H166.712ZM172.822 30.28C173.342 30.28 173.806 30.388 174.214 30.604C174.63 30.82 174.954 31.14 175.186 31.564C175.418 31.988 175.534 32.5 175.534 33.1V37H174.178V33.304C174.178 32.712 174.03 32.26 173.734 31.948C173.438 31.628 173.034 31.468 172.522 31.468C172.01 31.468 171.602 31.628 171.298 31.948C171.002 32.26 170.854 32.712 170.854 33.304V37H169.486V30.388H170.854V31.144C171.078 30.872 171.362 30.66 171.706 30.508C172.058 30.356 172.43 30.28 172.822 30.28ZM178.875 31.504V35.164C178.875 35.412 178.931 35.592 179.043 35.704C179.163 35.808 179.363 35.86 179.643 35.86H180.483V37H179.403C178.787 37 178.315 36.856 177.987 36.568C177.659 36.28 177.495 35.812 177.495 35.164V31.504H176.715V30.388H177.495V28.744H178.875V30.388H180.483V31.504H178.875ZM182.44 29.512C182.192 29.512 181.984 29.428 181.816 29.26C181.648 29.092 181.564 28.884 181.564 28.636C181.564 28.388 181.648 28.18 181.816 28.012C181.984 27.844 182.192 27.76 182.44 27.76C182.68 27.76 182.884 27.844 183.052 28.012C183.22 28.18 183.304 28.388 183.304 28.636C183.304 28.884 183.22 29.092 183.052 29.26C182.884 29.428 182.68 29.512 182.44 29.512ZM183.112 30.388V37H181.744V30.388H183.112ZM186.504 31.504V35.164C186.504 35.412 186.56 35.592 186.672 35.704C186.792 35.808 186.992 35.86 187.272 35.86H188.112V37H187.032C186.416 37 185.944 36.856 185.616 36.568C185.288 36.28 185.124 35.812 185.124 35.164V31.504H184.344V30.388H185.124V28.744H186.504V30.388H188.112V31.504H186.504ZM195.325 30.388L191.269 40.108H189.853L191.197 36.892L188.593 30.388H190.117L191.977 35.428L193.909 30.388H195.325Z" fill="#515151"/>
<path d="M0 39.4333L8.7 6H13.34L9.28 20.7333H17.4L21.46 6H25.52L16.82 39.4333H12.18L16.24 24.7H8.7L4.64 39.4333H0Z" fill="#FF2E2E"/>
<path d="M27.84 10.1034L29 6H46.4L45.24 10.1034H38.86L31.32 40H26.68L34.22 10.1034H27.84Z" fill="#FF2E2E"/>
<path fill-rule="evenodd" clip-rule="evenodd" d="M53.3601 6L37.1201 39.4333H41.7601L43.5001 35.4667H51.0401L50.4601 39.4333H54.5201L58.0001 6H53.3601ZM52.78 17.3333L45.82 31.5H51.62L52.78 17.3333Z" fill="#FF2E2E"/>
</svg>
