<svg width="68" height="61" viewBox="0 0 68 61" fill="none" xmlns="http://www.w3.org/2000/svg">
<path d="M55.7346 36.48L55.7153 36.4875L55.6967 36.4966C54.4875 37.0851 52.8072 36.9307 51.6512 36.2346C51.2319 35.906 50.9806 35.4624 50.8168 34.9235C50.6486 34.3702 50.5825 33.7538 50.512 33.0949L50.5114 33.0898C50.5043 32.9137 50.497 32.7375 50.4896 32.5613C50.388 30.1319 50.2865 27.7045 50.8703 25.6001C51.2834 24.466 52.3939 24.1134 53.6441 24.0025C54.9514 24.0062 56.0306 24.2316 56.7118 25.1999C56.9156 25.5421 57.0226 25.9548 57.0873 26.4343C57.1199 26.6759 57.1408 26.9254 57.1604 27.1853C57.1637 27.2283 57.1669 27.2718 57.1702 27.3157C57.1854 27.5216 57.2013 27.7344 57.2226 27.9428C57.2125 28.5713 57.2193 29.2202 57.2262 29.8761C57.2433 31.5057 57.2609 33.1783 57.0201 34.6873C56.8628 35.4866 56.3809 36.2292 55.7346 36.48Z" stroke="#A9A9A9"/>
<path fill-rule="evenodd" clip-rule="evenodd" d="M39.6645 56.7216L39.7565 56.6623C39.9768 56.52 40.195 56.3747 40.4112 56.2265C42.3404 54.904 44.1156 53.3444 45.8118 51.5161C46.441 51.7944 47.056 52.1401 47.645 52.5304C47.9314 52.7202 48.2117 52.9206 48.4844 53.129C48.223 53.3553 47.9559 53.5714 47.6838 53.7783C45.9318 55.1108 43.9747 56.0608 41.9923 56.873L40.4583 57.3987L40.3589 57.4328C40.2071 57.3512 40.0654 57.2478 39.9283 57.1333C39.8153 57.0389 39.7054 56.937 39.5955 56.8338L39.6645 56.7216ZM46.0354 52.7351C45.2176 53.5835 44.3789 54.3748 43.5116 55.1115C44.6697 54.5581 45.7796 53.9329 46.8103 53.182C46.5549 53.022 46.2963 52.8724 46.0354 52.7351ZM38.7752 57.88L38.7528 57.884C38.7135 57.8913 38.6776 57.9003 38.6579 57.9208C38.5074 57.9561 38.3563 57.99 38.2045 58.0224C38.1277 58.0389 38.0507 58.055 37.9736 58.0707C37.9031 58.0851 37.8325 58.0992 37.7617 58.1129C34.7094 58.7073 31.4261 58.7439 28.36 58.1193C28.2856 58.1042 28.2113 58.0886 28.1372 58.0727L28.0812 58.0606C27.9969 58.0422 27.9127 58.0233 27.8288 58.004C27.6173 57.9551 27.4069 57.9031 27.1979 57.8478C27.1693 57.7671 27.1961 57.7142 27.2446 57.6714C27.2738 57.6456 27.3109 57.6235 27.3484 57.6011C27.3956 57.5728 27.4436 57.5441 27.4774 57.5072C27.7045 57.3465 27.9406 57.1972 28.1843 57.0593C31.0746 55.4232 35.042 55.3851 37.9465 57.055C37.9837 57.0764 38.0208 57.098 38.0576 57.12C38.0886 57.1385 38.1194 57.1571 38.1501 57.1759C38.2838 57.2579 38.415 57.3437 38.5436 57.4332C38.6648 57.5176 38.7836 57.6053 38.8998 57.6964C38.97 57.846 38.8703 57.8634 38.7752 57.88ZM29.9015 57.3671C31.8946 56.6424 34.23 56.6302 36.2209 57.3541C34.1374 57.6369 31.9813 57.6514 29.9015 57.3671ZM37.0935 55.1465L37.1713 55.0324C37.2812 54.8708 37.39 54.7088 37.4977 54.5465C38.5858 52.9058 39.5611 51.2246 40.4279 49.4595L40.5319 49.3812C41.6859 49.6714 42.798 50.0489 43.8521 50.5345C44.1629 50.6777 44.4686 50.8303 44.7689 50.9928C44.5559 51.2583 44.3314 51.517 44.0984 51.7688C43.1159 52.8304 41.9811 53.7706 40.9143 54.588C40.7388 54.703 40.5633 54.8198 40.3874 54.937C39.763 55.3529 39.1338 55.7721 38.4824 56.1213L36.9907 55.4127L37.0935 55.1465ZM38.41 54.9798L38.4432 54.9956C38.8951 54.7291 39.34 54.4328 39.8083 54.121L39.8087 54.1207L39.8095 54.1202C39.981 54.006 40.1557 53.8897 40.335 53.772C41.2985 53.0326 42.2856 52.2145 43.1509 51.3158C42.4624 51.015 41.7451 50.7597 41.0027 50.5443C40.2201 52.0746 39.3564 53.544 38.41 54.9798ZM46.6067 50.5791C46.8761 50.7731 47.1563 50.9554 47.4416 51.1334C47.627 51.2492 47.8146 51.3632 48.0026 51.4775L48.0028 51.4776C48.4205 51.7315 48.8406 51.9869 49.2454 52.2664L49.5898 52.3053L49.5927 52.3056C51.6071 50.5765 53.4485 48.3724 54.9064 46.0861C55.2537 46.0496 55.7049 46.0496 56.0171 46.0861C55.9142 46.2572 55.8099 46.4268 55.7044 46.595C55.6066 46.751 55.5076 46.9057 55.4075 47.0592C53.9108 49.3544 52.1712 51.3635 50.2424 53.0626C50.1333 53.1587 50.0235 53.2539 49.9131 53.3481C44.1869 58.2341 36.8557 60.4344 29.2789 59.3419C26.252 58.9006 23.3891 57.8861 20.6935 56.4693C20.6454 56.444 20.5973 56.4186 20.5492 56.393L20.5316 56.3836L20.5276 56.3714L20.5152 56.333L20.4953 56.2714L20.4627 56.304L20.4614 56.3053L20.4349 56.2909C19.0001 55.5091 17.5879 54.5358 16.2515 53.4157C16.1583 53.3376 16.0655 53.2589 15.9731 53.1794C13.9279 51.4201 12.0718 49.3188 10.6001 47.04C10.502 46.8882 10.4057 46.7357 10.3112 46.5824C10.2089 46.4165 10.1086 46.2498 10.0105 46.0822C10.0604 46.078 10.1083 46.0737 10.1547 46.0695C10.4942 46.0389 10.7531 46.0156 11.1224 46.0822C12.5779 48.4429 14.5258 50.6887 16.6079 52.4126L16.6125 52.4103C17.2943 52.0696 17.9582 51.6342 18.6177 51.1981L18.6891 51.1509C18.9451 50.9815 19.2004 50.8126 19.456 50.6496L19.2522 50.3758L19.1518 50.2409C19.0535 50.1089 18.9555 49.977 18.8578 49.8451C18.1758 48.924 17.5129 48.0013 16.9345 47.0236C16.9067 46.9767 16.8791 46.9296 16.8517 46.8824L16.8427 46.8669C16.7993 46.7918 16.7564 46.7164 16.714 46.6407C16.6047 46.4453 16.499 46.2476 16.3974 46.047C16.5133 46.069 16.6571 46.0508 16.8063 46.0319C17.1526 45.988 17.5279 45.9404 17.6496 46.3837C18.3132 47.4918 19.1084 48.597 19.943 49.629C20.0686 49.7843 20.1952 49.938 20.3223 50.0898L20.4626 50.1667C21.9568 49.4934 23.4836 48.8931 25.0468 48.4037L25.1508 48.2928L24.8728 47.5856L24.6519 47.0235L24.6484 47.0147L24.423 46.4413L24.2834 46.0861C24.3033 46.0767 24.3243 46.0685 24.3461 46.0615C24.5111 46.0085 24.7253 46.0222 24.9458 46.0363C25.0489 46.0429 25.1534 46.0496 25.2549 46.0496L25.7915 47.1893L26.1925 48.041C28.207 47.5855 30.2892 47.3272 32.4427 47.2149C32.4776 47.1518 32.5017 47.0896 32.5179 47.0278C32.5384 46.9495 32.5464 46.8718 32.548 46.7932C32.5484 46.7722 32.5484 46.7512 32.548 46.73C32.5469 46.6696 32.543 46.6084 32.539 46.5458C32.5372 46.5166 32.5353 46.4872 32.5337 46.4574C32.5268 46.3308 32.5246 46.1978 32.548 46.0535H33.4481C33.4703 46.1004 33.4855 46.1521 33.4958 46.2072C33.52 46.3379 33.5165 46.488 33.513 46.6393C33.5096 46.7863 33.5062 46.9344 33.5281 47.067C33.5343 47.1046 33.5425 47.141 33.5534 47.1758C35.6368 47.3245 37.8944 47.5842 39.9415 48.0736L40.149 47.6268L40.8804 46.0522H41.8168C41.7927 46.1829 41.759 46.3125 41.7184 46.4415C41.6541 46.6462 41.5726 46.8492 41.4851 47.0522C41.4403 47.1562 41.3938 47.2603 41.3473 47.3645L41.3472 47.3647C41.2504 47.5815 41.1532 47.7992 41.0691 48.0198C41.0385 48.1 41.0097 48.1805 40.9832 48.2615L41.1562 48.4064C42.7182 48.8566 44.1071 49.4555 45.6352 50.1315C45.7677 49.9886 45.8969 49.8427 46.0232 49.6943C46.9542 48.6002 47.726 47.3682 48.4684 46.1832L48.5522 46.0496H49.629C49.541 46.2194 49.4504 46.3876 49.3573 46.5543C49.2643 46.7208 49.1689 46.8859 49.0712 47.0496C48.5085 47.9927 47.8725 48.892 47.2095 49.7809C47.0755 49.9606 46.9404 50.1398 46.8045 50.3189C46.7388 50.4057 46.6728 50.4924 46.6067 50.5791ZM48.433 50.5689C48.3009 50.4885 48.172 50.4098 48.0462 50.3318C48.9396 49.1318 49.8089 47.8772 50.517 46.5093L51.2727 45.0496H49.629H48.5522H47.9988L47.7049 45.5185L47.6409 45.6205C46.9139 46.7806 46.2021 47.9165 45.367 48.9211C44.3493 48.477 43.3508 48.063 42.288 47.7106C42.2994 47.6851 42.3109 47.6592 42.3226 47.6328C42.3335 47.608 42.3446 47.5829 42.3559 47.5573C42.5189 47.1863 42.7085 46.7304 42.8002 46.2339L43.0185 45.0522H41.8168H40.8804H40.2422L39.9734 45.631L39.3735 46.9226C37.7761 46.5914 36.0998 46.3835 34.5075 46.2474L34.5051 46.2182C34.4915 46.0646 34.4574 45.8481 34.3519 45.6254L34.0809 45.0535H33.4481H32.548H31.6971L31.5609 45.8934C31.5386 46.0311 31.5306 46.1577 31.5292 46.2692C29.9063 46.3843 28.3163 46.5862 26.7596 46.8978L26.1596 45.6236L25.8893 45.0496H25.2549C25.202 45.0496 25.14 45.0466 25.0532 45.0411L25.0146 45.0387L25.0143 45.0386C24.9414 45.0339 24.849 45.028 24.7605 45.0253C24.5782 45.0197 24.2094 45.0144 23.8546 45.1827L23.0111 45.583L23.3527 46.452L23.8592 47.7404C22.7855 48.1069 21.7314 48.521 20.6962 48.97C19.9173 48.0046 19.1802 46.9809 18.5625 45.9611C18.448 45.6602 18.2463 45.3892 17.9376 45.2095C17.6124 45.0202 17.2829 45.0016 17.085 45.0051C16.9259 45.0078 16.751 45.0305 16.6561 45.0427L16.6122 45.0483C16.5762 45.0526 16.5522 45.0547 16.5378 45.0558L14.5867 44.6852L15.5053 46.4988C16.2185 47.9068 17.1208 49.1789 18.0198 50.394C17.5789 50.6856 17.1598 50.9612 16.7359 51.2069C14.9316 49.6186 13.2532 47.6329 11.9736 45.5574L11.7393 45.1773L11.2998 45.0981C10.7902 45.0062 10.3999 45.0423 10.0599 45.0737H10.0598C10.0143 45.078 9.96976 45.0821 9.92592 45.0858L8.34671 45.2199L9.14758 46.5875C11.6762 50.9057 15.5669 54.7044 19.6862 57.0194L19.7045 57.076L20.0613 57.2661C22.8889 58.7729 25.9156 59.8621 29.1346 60.3315L29.1362 60.3317C40.2208 61.93 50.7781 56.7351 56.874 46.6016L57.6731 45.2732L56.1334 45.0929C55.7403 45.0469 55.2145 45.0482 54.8018 45.0916L54.3224 45.1421L54.0633 45.5485C52.7588 47.5941 51.1422 49.5633 49.3832 51.157C49.0929 50.9699 48.8029 50.7937 48.5268 50.6259L48.433 50.5689ZM25.7764 57.4328C26.0183 57.284 26.2966 57.0622 26.4696 56.8338C26.323 56.7325 26.1771 56.6308 26.032 56.5287L25.8814 56.4225C25.8426 56.3951 25.8039 56.3675 25.7651 56.34C25.7267 56.3126 25.6883 56.2852 25.6499 56.2578C23.7395 54.8907 21.9522 53.425 20.2206 51.5539C19.6025 51.8356 19.0189 52.203 18.445 52.5881C18.2809 52.6982 18.1176 52.8098 17.9545 52.9212L17.8295 53.0066C17.7695 53.0475 17.7096 53.0883 17.6496 53.129V53.2373C17.7011 53.2775 17.7527 53.3173 17.8043 53.357C18.0077 53.5133 18.2125 53.666 18.4187 53.8153C19.0326 54.2598 19.6588 54.6731 20.2972 55.0544C20.6424 55.2606 20.9912 55.4574 21.3436 55.6446C22.6594 56.3439 24.0248 56.91 25.4395 57.3346C25.5515 57.3682 25.6638 57.4009 25.7764 57.4328ZM20.01 52.7852C20.8438 53.6439 21.6899 54.4179 22.5534 55.1377C21.4365 54.5964 20.3534 53.9553 19.3044 53.2187C19.5417 53.0639 19.7753 52.9185 20.01 52.7852ZM27.6166 56.1591C25.5816 55.0629 23.6314 53.5825 21.9314 51.8246C21.7638 51.6512 21.5985 51.4751 21.4358 51.2964C21.3887 51.2445 21.3417 51.1925 21.295 51.1403V51.028C21.3928 50.9767 21.491 50.9263 21.5895 50.8769C21.7777 50.7825 21.9671 50.6916 22.1577 50.6038C23.2498 50.1013 24.3803 49.7053 25.532 49.3786L25.6711 49.4203C26.5328 51.1808 27.5727 52.861 28.639 54.5313C28.8165 54.8093 28.9947 55.0871 29.1729 55.3649L29.1785 55.3735L29.1785 55.3736C28.9356 55.5225 28.6674 55.6438 28.3994 55.7651L28.2772 55.8206C28.0487 55.9247 27.8232 56.0319 27.6166 56.1591ZM26.8858 49.0053C26.9649 48.9889 27.0441 48.9727 27.1234 48.9566C27.307 48.9193 27.4913 48.883 27.6764 48.8478C28.9222 48.6106 30.2007 48.4242 31.5118 48.3587C31.7703 48.3458 32.03 48.3375 32.291 48.3345C32.3645 48.3337 32.438 48.3333 32.5117 48.3333L32.5246 50.5794L32.5372 52.7731L32.548 54.661C32.1856 54.7549 31.8068 54.8022 31.4324 54.8489L31.4323 54.849C31.0517 54.8965 30.6755 54.9435 30.3255 55.0382C29.0914 53.4482 28.04 51.7435 27.1263 49.9767L27.0611 49.8501C26.9431 49.6199 26.8274 49.3888 26.714 49.1567L26.8858 49.0053ZM30.7425 53.9332C29.7681 52.6183 28.9123 51.2234 28.1499 49.7767C29.26 49.5737 30.3805 49.419 31.5176 49.3597L31.5432 53.8268C31.5068 53.8316 31.4697 53.8363 31.4319 53.8411C31.3886 53.8466 31.3444 53.8522 31.2992 53.8578L31.2772 53.8606C31.1117 53.8812 30.9305 53.9038 30.7425 53.9332ZM33.5371 52.7605C33.5235 52.0287 33.5178 51.3095 33.5246 50.5807C33.5314 49.8478 33.5508 49.1053 33.5873 48.3307H33.5874C35.2418 48.3656 36.8971 48.5263 38.4706 48.8624C38.6369 48.8979 38.8022 48.9354 38.9666 48.9749C39.1076 49.0088 39.2479 49.0441 39.3874 49.081L39.4213 49.1933C39.3754 49.2887 39.329 49.384 39.2821 49.4792C39.1935 49.6588 39.103 49.8378 39.0107 50.0162C38.1163 51.745 37.0541 53.4144 35.9151 54.999C35.5633 55.0433 35.2243 54.968 34.8834 54.8923C34.651 54.8407 34.4177 54.7889 34.1789 54.7746L33.5873 54.6963C33.5665 54.0323 33.5489 53.3917 33.5371 52.7605ZM34.5617 53.8111C34.5204 52.2861 34.5036 50.8697 34.5482 49.3669C35.7273 49.43 36.8888 49.5644 38.0023 49.7867C37.2424 51.2265 36.3609 52.6298 35.4118 53.981C35.3643 53.9725 35.3122 53.9622 35.2544 53.9499C35.2172 53.9419 35.1753 53.9325 35.1294 53.9222L35.1293 53.9222C34.9745 53.8875 34.775 53.8428 34.5617 53.8111ZM27.6263 55.0206C25.9447 54.0575 24.3291 52.8187 22.8883 51.372C23.612 51.055 24.3567 50.7831 25.1186 50.545C25.9119 52.0724 26.82 53.5388 27.7328 54.9702C27.6978 54.9865 27.6623 55.0033 27.6263 55.0206ZM3.24277 16.2856L3.23324 16.2856L3.22371 16.2857L1.07135 16.321L0.104931 16.3368L0.0878711 17.3032C0.0525751 19.3025 0.0525804 21.6344 0.0878654 23.6685L0.104354 24.6191L1.05455 24.6506C1.50009 24.6654 1.91095 24.6698 2.30431 24.674H2.30441C2.72465 24.6785 3.12491 24.6827 3.52617 24.6993V36.0438L1.031 36.0978L0.0848389 36.1182L0.0531883 37.0641C-0.0177226 39.1833 -0.0177441 41.2298 0.0532098 43.3106L0.0861464 44.2765H1.05263H16.3672H16.8582L16.8586 44.2875L17.8311 44.2804L23.0384 44.2426L23.9932 44.2356L24.0304 43.2816L24.0363 43.1293C24.1463 43.1938 24.2607 43.2599 24.3808 43.3278L24.4181 43.3488L24.457 43.3666C28.2637 45.1058 33.2693 45.553 37.2068 43.3276L37.2195 43.3204L37.232 43.3129C39.3709 42.0205 40.7664 39.8789 41.2231 37.4351C41.7431 38.6514 42.4495 39.7842 43.3809 40.7787L43.3986 40.7975L43.4172 40.8154C47.6086 44.851 53.6523 45.6991 58.9543 44.0944C59.2507 44.0242 60.0549 43.8014 60.677 43.4457L60.7749 43.3997L60.78 43.3974C62.4906 42.6175 64.1272 41.345 65.3444 39.6197L65.3608 39.5966L65.3758 39.5725C68.1437 35.1357 68.2871 28.6288 66.6572 23.7826L66.6573 23.7826L66.6533 23.7713C65.9495 21.7588 64.5278 19.9918 62.8328 18.7305L62.8205 18.7214L62.808 18.7126C57.9791 15.3437 50.6819 15.1 45.688 18.1468C43.0327 19.6458 41.2897 22.4461 40.6148 25.3332C40.6297 23.6162 40.5992 21.9829 40.5679 20.3062L40.5679 20.3053C40.5519 19.4492 40.5357 18.5819 40.5253 17.6863L40.514 16.7216L39.5495 16.6982C37.9719 16.6601 36.0356 16.6597 34.4426 16.737L33.6336 16.7762L33.504 17.5757L33.5014 17.5918L33.2971 17.4716L33.2538 17.4461L33.2083 17.4252C29.1755 15.5679 23.3971 15.2911 19.5307 18.3346L19.5307 18.3346L19.526 18.3383C18.5759 19.0955 17.8749 20.0535 17.3966 21.1139C17.4042 19.7889 17.3923 18.4685 17.3283 17.2676L17.2779 16.3234L16.3324 16.3208L3.24277 16.2856ZM4.52617 36.4986V23.766C3.76401 23.6897 3.01734 23.6814 2.25598 23.6729C1.8716 23.6687 1.48347 23.6643 1.08772 23.6512C1.05263 21.6285 1.05263 19.3083 1.08772 17.3208L3.24008 17.2856L16.3297 17.3208C16.4317 19.2343 16.3988 21.468 16.3678 23.5674L16.3678 23.5676L16.366 23.6903L12.9275 23.7282L12.8598 23.8391L12.8235 36.9853C13.4715 37.0713 14.178 37.0699 14.8819 37.0685H14.882H14.8821C15.3858 37.0675 15.8883 37.0665 16.3672 37.0975V42.2765V43.2765H15.3672H1.05263C0.982457 41.2186 0.982457 39.1946 1.05263 37.0975L4.49108 37.0232L4.52617 36.4986ZM16.377 24.6903L13.8573 24.718L13.826 36.059C14.0665 36.0666 14.3184 36.0687 14.5823 36.0688C14.6765 36.0689 14.7728 36.0687 14.8704 36.0685H14.8708C15.3742 36.0674 15.9165 36.0662 16.4318 36.0996L16.7792 36.1221C16.7908 35.3103 16.8064 34.513 16.8241 33.7455L16.8466 32.7764L17.8158 32.7686L20.9386 32.7434C19.0166 31.5652 17.232 29.6696 16.807 27.1698C16.6419 26.3679 16.5683 25.5283 16.596 24.6879L16.377 24.6903ZM24.0216 34.3026C23.9688 34.2282 23.918 34.1448 23.8599 34.0425C24.993 34.4466 26.1334 34.8169 27.2622 35.1807L27.5573 35.2758C28.8951 35.7066 30.2144 36.1316 31.5146 36.6029C28.7731 37.2141 25.9501 36.4806 24.0216 34.3026ZM23.2405 34.9287C25.6033 37.6274 29.1458 38.3738 32.4089 37.4029L32.4255 37.3925C32.6649 37.2429 32.9642 37.0559 32.9642 36.7243C33.0332 36.3107 32.617 35.974 32.3048 35.8278C30.8404 35.2826 29.3536 34.8037 27.8691 34.3256C26.1844 33.783 24.5026 33.2414 22.8594 32.6046C20.6017 31.6715 18.2401 29.6814 17.79 26.9854C17.1984 24.138 17.8928 20.9186 20.1492 19.1204C23.624 16.3852 28.9704 16.5744 32.79 18.3335L33.4749 18.7364L34.387 19.273C34.4894 19.0046 34.4809 18.6688 34.4727 18.3466V18.3466C34.4711 18.284 34.4695 18.2219 34.4688 18.1609C34.4669 18.0094 34.4702 17.8646 34.4911 17.7358C36.0518 17.6601 37.9622 17.6601 39.5253 17.698C39.536 18.6091 39.5523 19.485 39.5684 20.3456C39.6072 22.4198 39.6442 24.4045 39.5955 26.5756C38.3349 26.6309 37.0156 26.6235 35.787 26.6166H35.7869C35.3906 26.6143 35.0038 26.6122 34.6314 26.6122C33.2062 24.1784 30.7066 23.278 28.2759 22.9061C28.0867 22.8996 27.887 22.884 27.6825 22.868C26.649 22.7872 25.4932 22.6968 24.9427 23.7295C24.8726 24.1406 25.0456 24.4759 25.3226 24.7395L25.9506 25.0762L34.3507 27.7396C37.1649 28.5239 39.9415 31.4092 40.3251 34.592C40.7062 37.8505 39.3172 40.8846 36.7148 42.457C33.136 44.4797 28.4828 44.1065 24.8726 42.457C24.6578 42.3357 24.4429 42.208 24.2278 42.0802L24.0807 41.9929C23.7546 41.7996 23.4281 41.6095 23.1013 41.4444L23.058 42.5548L23.0312 43.2426L17.8239 43.2805C17.7186 40.283 17.7537 36.8013 17.8239 33.7686L22.5121 33.7307C22.6492 33.9162 22.7612 34.1208 22.8734 34.3255L22.8734 34.3256C22.9869 34.5328 23.1005 34.7403 23.2405 34.9287ZM27.5728 23.8626C27.7691 23.8779 27.9847 23.8947 28.1797 23.9031C30.1576 24.2125 31.9859 24.8665 33.2146 26.3304L26.3413 24.151L26.0171 23.9772C26.1278 23.9026 26.2827 23.8568 26.5189 23.8349C26.741 23.8144 26.9956 23.8216 27.297 23.842C27.3807 23.8476 27.4742 23.8549 27.5727 23.8626L27.5727 23.8626L27.5728 23.8626ZM39.6393 27.5747C38.6315 27.6188 37.5823 27.6238 36.5825 27.6205C37.4684 28.1391 38.2914 28.8171 38.9932 29.598C39.3595 30.0056 39.698 30.4471 39.9977 30.9159C39.9925 29.7765 40.0753 28.643 40.2224 27.5491L39.6393 27.5747ZM60.2129 42.5588C59.6939 42.8655 58.9329 43.0743 58.6957 43.1278C53.6603 44.6624 47.9993 43.839 44.1107 40.095C40.7763 36.5351 40.5344 30.882 41.472 26.1228C41.9935 23.2414 43.6595 20.4332 46.1941 19.0094C50.8461 16.162 57.7242 16.3852 62.2358 19.5327C63.7966 20.6942 65.0814 22.3058 65.7094 24.1014C67.2701 28.7419 67.0983 34.9222 64.5273 39.0432C63.4179 40.6157 61.9225 41.7784 60.3605 42.4897L60.2129 42.5588ZM37.6593 3.56155C34.8018 5.19025 30.8806 5.24974 28.0505 3.57704C27.8905 3.4825 27.7341 3.38243 27.5815 3.2768C27.5258 3.22955 27.4529 3.18966 27.3784 3.14883C27.24 3.07306 27.0957 2.99402 27.0436 2.85851C27.0353 2.83716 27.0294 2.81441 27.0261 2.79005C27.3456 2.70883 27.6701 2.63408 27.9987 2.56596L28.086 2.54805C28.1315 2.53881 28.177 2.52969 28.2227 2.52069L28.2422 2.51685C30.3109 2.11104 32.5312 1.96639 34.6855 2.11952C35.064 2.14642 35.4404 2.18252 35.8137 2.22801C36.3791 2.29692 36.9371 2.38738 37.4836 2.50008C37.8673 2.5792 38.2453 2.66928 38.6162 2.77057L38.6917 2.79136V2.86574L38.6652 2.88665C38.3489 3.13534 38.0122 3.36041 37.6593 3.56155ZM35.9525 3.254C33.9896 3.97548 31.6916 3.99927 29.7494 3.27988C31.7919 3.00082 33.9316 2.98167 35.9525 3.254ZM28.8664 5.48872C28.8151 5.5584 28.7643 5.62831 28.7139 5.69844C28.6294 5.81613 28.5459 5.93445 28.4636 6.05332C27.4153 7.56628 26.5394 9.17044 25.6735 10.7566L25.463 11.1418L25.3226 11.1784C24.2082 10.8561 23.1131 10.4865 22.0566 10.0363C21.9619 9.996 21.8675 9.955 21.7734 9.91333C21.5782 9.82686 21.3844 9.7375 21.1921 9.64503L21.2611 9.42057L21.3388 9.34001C21.5022 9.17125 21.6662 9.00496 21.8311 8.84117C23.573 7.11095 25.4066 5.6593 27.4073 4.51391C27.5802 4.5885 27.7532 4.65906 27.9263 4.72966L27.9264 4.72968L27.9264 4.7297C28.2742 4.87151 28.6223 5.01347 28.9704 5.18858L28.8664 5.48872ZM27.5288 5.64796L27.4828 5.62921C25.8378 6.62009 24.2998 7.83715 22.8209 9.27093C23.5074 9.54857 24.214 9.79479 24.9368 10.019C25.7256 8.575 26.5531 7.07839 27.5288 5.64796ZM18.8416 8.42352C18.6599 8.31425 18.4804 8.19932 18.3028 8.07969C18.0872 7.93451 17.8743 7.78241 17.6635 7.62512C17.612 7.58665 17.5606 7.54787 17.5093 7.5088V7.43311C17.5581 7.39393 17.607 7.35497 17.656 7.31624C17.8624 7.15307 18.071 6.99384 18.2815 6.83851C20.0646 5.52303 21.9917 4.48764 24.0129 3.71532C24.2402 3.62847 24.4687 3.54494 24.6984 3.46472L24.8375 3.36544L24.9068 3.31595L25.0129 3.24026V3.30589V3.31595C25.0337 3.32154 25.0541 3.32481 25.0742 3.32617C25.1126 3.32877 25.1498 3.32441 25.186 3.31595C25.2401 3.30333 25.2921 3.28158 25.343 3.26028L25.3432 3.26021C25.3594 3.25341 25.3756 3.24666 25.3916 3.24026C25.4093 3.23324 25.4269 3.22664 25.4444 3.2209C25.5272 3.19374 25.6089 3.18557 25.694 3.24026C25.71 3.25056 25.7262 3.26307 25.7425 3.27811C25.7566 3.2909 25.771 3.3035 25.7854 3.31595C25.8329 3.35694 25.8818 3.39622 25.9309 3.43466L20.6125 7.17727C21.2412 6.56523 21.8831 5.98748 22.5338 5.44062C21.361 6.00595 20.2305 6.67149 19.1536 7.44107C19.35 7.56527 19.5469 7.68123 19.7447 7.78795L18.8416 8.42352ZM18.8417 8.42356C19.2646 8.678 19.6992 8.90175 20.1492 9.08259C21.842 7.25793 23.6646 5.71843 25.5257 4.38687C25.8049 4.18712 26.085 3.99205 26.3656 3.8014C26.2648 3.69271 26.1406 3.59686 26.0134 3.49864C25.986 3.47752 25.9585 3.4563 25.9311 3.43481L28.9295 1.32492C29.529 1.23123 30.133 1.15839 30.7405 1.10665C31.1942 1.0675 31.6454 1.03096 32.0265 1.0675C32.9832 0.960718 34.0691 0.9898 34.9778 1.09067C35.0241 1.09582 35.07 1.10114 35.1153 1.10665L35.1585 1.154L35.1855 1.18364L35.1972 1.15744L35.2194 1.10795L35.2643 1.11184C41.184 1.62911 46.7826 4.28184 51.1909 8.53738C52.6981 9.99237 54.0662 11.6347 55.2604 13.4432C55.3575 13.5902 55.4535 13.7384 55.5483 13.8876C55.6486 14.0456 55.7476 14.2047 55.8453 14.3651C55.6087 14.4922 55.371 14.4637 55.1119 14.4326C54.9907 14.418 54.8648 14.4029 54.7322 14.4029C53.5459 12.5241 52.1151 10.7899 50.5124 9.27213C50.1014 8.88286 49.6791 8.50783 49.2466 8.14823L48.8994 8.2983L46.4688 9.83294V9.99485V10.0196C46.6312 10.2048 46.7856 10.3871 46.9335 10.5689C46.961 10.6028 46.9883 10.6366 47.0154 10.6705L47.0501 10.7139C47.1963 10.8977 47.3363 11.0817 47.4717 11.2681C47.6543 11.5196 47.8285 11.7757 47.9981 12.0422C48.3459 12.4876 48.6801 12.9768 48.9834 13.4822C49.0791 13.6415 49.1716 13.8024 49.2606 13.9641C49.3409 14.11 49.4182 14.2565 49.4922 14.4029C49.2667 14.4914 48.9733 14.4864 48.6688 14.4811C48.596 14.4799 48.5226 14.4786 48.4493 14.4786C48.0609 13.8662 47.6535 13.2473 47.2297 12.6424L47.1757 12.5654C47.008 12.3274 46.8378 12.0916 46.6652 11.8594C46.5333 11.6819 46.3999 11.5064 46.2653 11.3336C46.0886 11.107 45.9097 10.8848 45.7287 10.6686C45.6425 10.5656 45.5559 10.464 45.4688 10.3638L45.4622 10.3562L45.2409 10.4541C44.0702 10.9719 42.9155 11.4826 41.7144 11.8856C41.5784 11.9312 41.4418 11.9755 41.3046 12.0182C41.1524 12.0656 40.9993 12.1111 40.8453 12.1545L40.7751 12.2302L41.0844 13.0027L41.1288 13.1135L41.1484 13.1624L41.5132 14.0737L41.645 14.4029C41.5981 14.4315 41.5447 14.4519 41.487 14.4662C41.3166 14.5084 41.1078 14.4975 40.9116 14.4872L40.9115 14.4872C40.8282 14.4828 40.7472 14.4786 40.6723 14.4786L40.2326 13.5657L39.7334 12.529L39.5616 12.4938C37.6149 13.0171 35.4977 13.2428 33.4832 13.355C33.4422 13.4547 33.4256 13.561 33.4198 13.6712C33.4151 13.7582 33.4172 13.8476 33.4193 13.938L33.4198 13.9579C33.4238 14.1317 33.4261 14.3086 33.3792 14.4786H32.4427C32.4028 14.3474 32.4098 14.1825 32.4168 14.0145L32.4194 13.952C32.4228 13.8626 32.4246 13.7735 32.4178 13.6891C32.406 13.5429 32.3684 13.4109 32.2685 13.3172C30.1174 13.2428 27.9989 12.9805 25.9844 12.4938C25.9193 12.6124 25.8578 12.7338 25.799 12.8569C25.6779 13.1104 25.5677 13.3712 25.4581 13.6308L25.4581 13.6308L25.458 13.6308C25.3363 13.9191 25.2152 14.2056 25.0807 14.4786C25.032 14.4829 24.9856 14.4874 24.9409 14.4916C24.6352 14.5207 24.4077 14.5424 24.0753 14.4786L24.2405 14.0645L24.4579 13.5198L24.8821 12.4566L24.9427 12.3045L24.8036 12.1545C23.5698 11.7912 22.3824 11.3074 21.1849 10.8194L21.1849 10.8194L21.1844 10.8192C20.8979 10.7024 20.6107 10.5854 20.3223 10.4698C20.0924 10.7255 19.8699 10.9877 19.6538 11.2552C18.8266 12.2789 18.0935 13.3785 17.4077 14.4773C17.0592 14.5504 16.6092 14.5882 16.366 14.4773C16.4492 14.3133 16.5357 14.1506 16.6253 13.9889C16.7079 13.8397 16.7931 13.6914 16.8805 13.544C17.4405 12.5994 18.0921 11.6892 18.756 10.7876L18.8599 10.6467C18.9508 10.5234 19.0419 10.4004 19.133 10.2774L19.3507 9.98301C19.0815 9.79663 18.7983 9.61745 18.5087 9.43985C18.3548 9.3455 18.1991 9.2516 18.0428 9.1573L18.0426 9.15719C17.999 9.13086 17.9553 9.1045 17.9115 9.07808L18.8417 8.42356ZM19.7448 7.788C19.7448 7.78798 19.7448 7.78797 19.7447 7.78795L20.6125 7.17727C20.6124 7.17745 20.6122 7.17763 20.612 7.1778L19.7448 7.788ZM19.7448 7.788C19.8013 7.81843 19.8578 7.84811 19.9144 7.87701C20.1449 7.63905 20.3775 7.40604 20.612 7.1778L25.9311 3.43481C25.931 3.43476 25.931 3.43471 25.9309 3.43466L28.9288 1.32502C28.929 1.32498 28.9292 1.32495 28.9295 1.32492L30.6556 0.110258L30.6643 0.109507C31.0634 0.0750628 31.5574 0.0324354 32.0134 0.0632277C32.9622 -0.0336847 33.9978 -0.0110941 34.891 0.0762177L35.3046 0.111593C43.9455 0.850675 51.8931 5.95441 56.6993 13.8449L57.2484 14.7463L56.3187 15.2459C55.9015 15.4701 55.5036 15.4712 55.239 15.4511C55.1483 15.4442 55.0457 15.4319 54.9732 15.4232L54.9731 15.4232L54.9196 15.4168C54.8344 15.4071 54.779 15.4029 54.7322 15.4029H54.181L53.8867 14.9368C52.5716 12.854 50.9434 10.9551 49.1109 9.34739L47.866 10.1334C48.2067 10.5644 48.5179 10.9995 48.8159 11.4649C49.4023 12.2212 49.9474 13.0866 50.3847 13.9518L50.8805 14.9326L49.8574 15.3339C49.5548 15.4526 49.2503 15.4752 49.0377 15.4814C48.9105 15.4852 48.7378 15.4825 48.6036 15.4804C48.541 15.4795 48.4867 15.4786 48.4493 15.4786H47.8994L47.6049 15.0142C46.8496 13.8234 46.0351 12.6295 45.1794 11.5745C44.1811 12.0143 43.1562 12.4532 42.0866 12.8153L42.5734 14.0312L42.888 14.817L42.165 15.2571C41.7923 15.484 41.3852 15.4962 41.1855 15.4966C41.0687 15.4968 40.9547 15.4908 40.8713 15.4865L40.8711 15.4865L40.8689 15.4863C40.7741 15.4814 40.7184 15.4786 40.6723 15.4786H40.0439L39.7713 14.9125L39.1523 13.627C37.5972 13.9891 35.9752 14.1843 34.4155 14.2975C34.4063 14.4352 34.3858 14.59 34.3432 14.7446L34.1406 15.4786H33.3792H32.4427H31.7017L31.486 14.7697C31.4302 14.5862 31.4155 14.4099 31.4122 14.2791C29.7597 14.1853 28.1249 13.9797 26.5395 13.6446C26.5069 13.7194 26.474 13.7963 26.4404 13.8753L26.3812 14.0153L26.3812 14.0154C26.2601 14.3022 26.1262 14.6193 25.9776 14.9208L25.7291 15.4248L25.1694 15.4747C25.1287 15.4783 25.0869 15.4824 25.044 15.4866C24.7365 15.5169 24.3685 15.5531 23.887 15.4607L22.6977 15.2327L23.1465 14.108L23.6531 12.8382C22.6722 12.5058 21.7166 12.1162 20.7878 11.7375L20.7877 11.7375L20.6106 11.6653C19.7491 12.701 18.9844 13.8398 18.256 15.0068L18.0302 15.3685L17.6129 15.456C17.3941 15.5019 17.133 15.5394 16.8727 15.546C16.6426 15.5518 16.2834 15.5388 15.951 15.3871L15.0025 14.9545L15.4742 14.0248C16.1528 12.6873 17.0396 11.4329 17.9119 10.2471C17.7832 10.1686 17.6512 10.089 17.5159 10.0073L17.4594 9.97321C17.3156 9.88644 17.1683 9.79744 17.0193 9.70591L17.9115 9.07808C17.9115 9.07807 17.9115 9.07806 17.9115 9.07804L18.8416 8.42352C18.8416 8.42353 18.8416 8.42355 18.8417 8.42356L19.7448 7.788ZM17.0193 9.70588C17.0193 9.70589 17.0193 9.7059 17.0193 9.70591L14.603 11.4063L17.0193 9.70588ZM17.0193 9.70588C16.8836 9.62254 16.7465 9.53711 16.6093 9.44935C16.018 9.93571 15.4546 10.5213 14.8131 11.188L14.603 11.4063C13.5957 12.5662 12.6935 13.7583 11.8886 14.9863L11.7238 15.2377L11.4478 15.3566C11.0375 15.5333 10.6377 15.5122 10.4238 15.4967C10.3707 15.4928 10.3183 15.4881 10.2755 15.4843L10.2643 15.4833C10.2162 15.479 10.1795 15.4758 10.1456 15.4736C10.1125 15.4714 10.0893 15.4706 10.0725 15.4705C10.0585 15.4705 10.0522 15.4711 10.0517 15.4711L8.04067 15.697L9.08321 13.9622C14.0371 5.71889 21.9891 0.848615 30.6549 0.110313L28.9288 1.32502C27.9437 1.47896 26.9705 1.68916 26.0129 1.95444C25.485 2.10069 24.9619 2.26367 24.4442 2.4432L24.3741 2.46761C20.7785 3.72596 17.4447 5.78346 14.5862 8.57481C14.1004 9.04919 13.6283 9.54477 13.171 10.0612L13.1381 10.0985C12.2124 11.1477 11.3475 12.2826 10.5522 13.5007C10.4595 13.6427 10.3678 13.7858 10.277 13.93C10.1633 14.1107 10.051 14.2931 9.94034 14.4773C10.0741 14.4623 10.2176 14.4751 10.3635 14.4882C10.5976 14.5091 10.8375 14.5306 11.0522 14.4382C11.887 13.1645 12.8223 11.93 13.8652 10.7308C13.9449 10.6481 14.024 10.5658 14.1028 10.4839L14.1047 10.4818C14.5004 10.0702 14.8857 9.66942 15.2791 9.2958C15.6945 8.90128 16.1189 8.53709 16.5741 8.22262C17.0043 8.52656 17.4593 8.80494 17.9115 9.07804L17.0193 9.70588ZM39.1781 11.442C38.8494 11.5276 38.5195 11.6063 38.1886 11.6779C36.6338 12.014 35.0542 12.1923 33.4481 12.1923C33.3792 10.2075 33.4143 7.99555 33.4481 5.93762C33.796 5.88086 34.1607 5.82475 34.5255 5.76864C34.8903 5.71252 35.2551 5.65641 35.6029 5.59964C36.7528 7.19018 37.8774 8.80802 38.7432 10.5211C38.8967 10.8249 39.0421 11.1318 39.1781 11.442ZM37.7372 10.751C36.6431 10.9752 35.5382 11.117 34.4218 11.1694C34.396 9.75518 34.412 8.25649 34.4345 6.79444L34.6776 6.75701L34.6803 6.75659C34.8367 6.73252 34.9942 6.70829 35.151 6.68391C36.1153 8.03262 37.0167 9.36881 37.7372 10.751ZM28.933 11.948C28.4654 11.8813 27.9685 11.8103 27.4896 11.7103C27.1471 11.6388 26.8138 11.5524 26.5071 11.442C26.6548 11.14 26.8062 10.8396 26.9616 10.541C27.8649 8.80473 28.9013 7.12976 30.1174 5.5631L32.3399 5.89978C32.4133 7.28857 32.3986 8.83006 32.3841 10.3471V10.3473L32.3841 10.3484C32.3783 10.9578 32.3726 11.5632 32.3726 12.1532C31.6567 12.2637 30.9967 12.1908 30.3107 12.115L30.3106 12.115C30.0657 12.0879 29.8174 12.0605 29.562 12.0409C29.3619 12.0092 29.1507 11.9791 28.9331 11.948L28.933 11.948ZM29.009 10.9478C28.65 10.8963 28.2987 10.8459 27.9629 10.7847C28.7252 9.34249 29.5799 7.95256 30.5546 6.64074L31.3742 6.7649C31.4073 7.89374 31.3959 9.09451 31.3844 10.3035V10.3036C31.3815 10.6045 31.3786 10.9059 31.3764 11.2068C31.1117 11.1953 30.8399 11.1652 30.5324 11.1313L30.5324 11.1312C30.2778 11.1031 29.9987 11.0723 29.679 11.047C29.454 11.0117 29.2302 10.9796 29.0092 10.9479L29.009 10.9478ZM38.3106 4.44083C40.2991 5.52872 42.2349 7.02299 43.9252 8.7477C44.0668 8.89223 44.2067 9.03838 44.3448 9.18604C44.4288 9.27585 44.5121 9.36621 44.5947 9.45711L44.5257 9.57064L44.41 9.62497C44.1723 9.7362 43.9334 9.84611 43.693 9.95347C42.6011 10.4411 41.4777 10.8761 40.29 11.1431C39.3682 9.44397 38.3719 7.74482 37.2761 6.09315C37.0919 5.81544 36.9048 5.53907 36.7148 5.26426C36.9767 5.10184 37.2697 4.96159 37.5662 4.81972L37.6089 4.79929C37.8462 4.68563 38.0849 4.5702 38.3106 4.44083ZM39.4225 3.8027C39.4471 3.71085 39.5056 3.62827 39.5817 3.55173C39.6762 3.45671 39.7978 3.37098 39.915 3.28833L39.915 3.28829L39.9151 3.28822C39.973 3.24738 40.0299 3.20728 40.0819 3.16719C40.2027 3.20124 40.3232 3.23633 40.4434 3.27244C42.9256 4.01815 45.2776 5.20234 47.4592 6.7736C47.6202 6.88954 47.7802 7.0076 47.9393 7.12774C48.0407 7.20433 48.1418 7.28176 48.2425 7.36004L48.1723 7.51011L48.0839 7.56398L47.405 7.97755L45.7755 8.97036H45.6037C43.929 7.13079 41.9961 5.51033 40.0153 4.1885C39.9532 4.14705 39.891 4.10591 39.8288 4.06505C39.6935 3.97619 39.5581 3.88874 39.4225 3.8027ZM45.841 7.75951C45.0868 6.97242 44.2893 6.22814 43.4648 5.53255C44.5169 6.04891 45.5396 6.65294 46.5289 7.34037L45.841 7.75951ZM38.2929 5.57927C39.9275 6.53188 41.5224 7.77082 42.9517 9.18698C42.2366 9.49636 41.5226 9.7704 40.7933 9.98135C39.9846 8.5234 39.1165 7.06511 38.1736 5.63739C38.2128 5.61845 38.2526 5.59908 38.2929 5.57927ZM16.7077 13.542L16.7106 13.5426C16.7086 13.5423 16.7076 13.5421 16.7077 13.542Z" fill="#A9A9A9"/>
</svg>
