<svg width="61" height="61" viewBox="0 0 61 61" fill="none" xmlns="http://www.w3.org/2000/svg">
<path fill-rule="evenodd" clip-rule="evenodd" d="M23.5978 0.638571C14.7776 2.69441 7.10325 8.76013 3.12362 16.8208C0.585912 21.962 0.0122643 24.468 0.000557247 30.4744C-0.00880843 34.9903 0.0918726 35.7713 0.918394 37.6051C2.62802 41.3989 6.97799 44.3231 10.9112 44.3231C14.8514 44.3231 19.2057 41.3927 20.8938 37.6051C21.773 35.632 21.8121 35.1545 21.8245 26.1833L21.8378 16.8208L19.0086 16.7061L16.1794 16.5915L16.1778 25.8736C16.1766 34.4476 16.1173 35.2528 15.4009 36.427C13.0247 40.3234 7.44705 40.1755 5.09783 36.1543C4.0278 34.3224 3.80341 29.1387 4.62408 25.2081C4.97139 23.5447 6.02113 20.6907 7.05682 18.5931C12.2634 8.05131 24.2315 2.29456 35.8863 4.72568C37.3887 5.03933 40.2788 6.11523 42.3084 7.11662C52.8534 12.3202 58.6125 24.2847 56.1806 35.9359C55.8668 37.4378 54.7906 40.3269 53.7888 42.3558C48.5936 52.8765 36.5692 58.6731 25.0167 56.2263C21.5112 55.484 17.3653 53.5541 14.2801 51.2291C11.8497 49.3976 11.7771 49.3718 10.9775 50.058C8.66966 52.0394 8.67083 52.0979 11.063 54.1518C13.5792 56.3122 19.1994 59.2114 22.6183 60.1125C26.74 61.199 32.6044 61.2981 36.8619 60.3536C56.4631 56.0059 66.667 34.7289 57.7392 16.8208C53.9082 9.1358 46.4844 3.04863 38.2277 0.822309C34.453 -0.19547 27.5493 -0.282073 23.5978 0.638571ZM27.4962 30.4744V44.3231H30.423H33.3498V30.4744V16.6258H30.423H27.4962V30.4744ZM43.1268 17.1341C40.4419 17.99 38.0326 21.513 38.0326 24.5831C38.0326 26.5247 39.2299 28.4978 42.3424 31.6853C45.6032 35.025 45.8904 35.703 44.8762 37.6633C44.155 39.0579 43.6251 39.2518 40.5372 39.2518H38.0326V41.7874V44.3231L40.8618 44.3208C44.4953 44.318 46.2959 43.8015 48.0555 42.2571C50.6759 39.9571 51.5934 36.2999 50.3161 33.2438C49.9891 32.4616 48.2974 30.43 46.5562 28.7291C43.5763 25.817 43.4054 25.5607 43.6395 24.3494C43.9958 22.5085 45.1587 21.6971 47.4416 21.6971H49.3495V19.1615V16.6258L46.9105 16.6656C45.5693 16.6874 43.8663 16.8985 43.1268 17.1341Z" fill="#A9A9A9"/>
</svg>
