<svg width="48" height="67" viewBox="0 0 48 67" fill="none" xmlns="http://www.w3.org/2000/svg">
<mask id="path-1-inside-1_496_140" fill="white">
<path fill-rule="evenodd" clip-rule="evenodd" d="M33.4387 2.14914C32.4961 1.16875 31.1947 0.614685 29.8346 0.614685H5C2.23858 0.614685 0 2.85326 0 5.61469V60.156C0 62.9174 2.23857 65.156 5 65.156H42.3303C45.0917 65.156 47.3303 62.9174 47.3303 60.156V17.211V17.211C47.3303 16.8166 47.1776 16.4375 46.9042 16.1533L33.4387 2.14914Z"/>
</mask>
<path fill-rule="evenodd" clip-rule="evenodd" d="M33.4387 2.14914C32.4961 1.16875 31.1947 0.614685 29.8346 0.614685H5C2.23858 0.614685 0 2.85326 0 5.61469V60.156C0 62.9174 2.23857 65.156 5 65.156H42.3303C45.0917 65.156 47.3303 62.9174 47.3303 60.156V17.211V17.211C47.3303 16.8166 47.1776 16.4375 46.9042 16.1533L33.4387 2.14914Z" fill="white"/>
<path d="M33.4387 2.14914L32.7179 2.84225L33.4387 2.14914ZM46.9042 16.1533L46.1834 16.8464L46.9042 16.1533ZM5 1.61469H29.8346V-0.385315H5V1.61469ZM1 60.156V5.61469H-1V60.156H1ZM42.3303 64.156H5V66.156H42.3303V64.156ZM46.3303 17.211V60.156H48.3303V17.211H46.3303ZM32.7179 2.84225L46.1834 16.8464L47.6251 15.4601L34.1596 1.45603L32.7179 2.84225ZM42.3303 66.156C45.644 66.156 48.3303 63.4697 48.3303 60.156H46.3303C46.3303 62.3651 44.5394 64.156 42.3303 64.156V66.156ZM-1 60.156C-1 63.4697 1.68629 66.156 5 66.156V64.156C2.79086 64.156 1 62.3651 1 60.156H-1ZM29.8346 1.61469C30.9226 1.61469 31.9638 2.05794 32.7179 2.84225L34.1596 1.45603C33.0284 0.27956 31.4667 -0.385315 29.8346 -0.385315V1.61469ZM48.3303 17.211C48.3303 16.5582 48.0775 15.9307 47.6251 15.4601L46.1834 16.8464C46.2776 16.9444 46.3303 17.0751 46.3303 17.211H48.3303ZM5 -0.385315C1.68629 -0.385315 -1 2.30098 -1 5.61469H1C1 3.40555 2.79086 1.61469 5 1.61469V-0.385315Z" fill="#444444" mask="url(#path-1-inside-1_496_140)"/>
<path d="M46.2372 15.5039L32.4404 1.7071C31.8105 1.07713 30.7333 1.5233 30.7333 2.4142V8.60549L35.8966 13.0566L40.7157 17.211H45.5301C46.421 17.211 46.8672 16.1339 46.2372 15.5039Z" fill="#444444"/>
<path d="M32.7332 17.211H42.1284C43.8747 17.211 44.7823 15.1298 43.594 13.8501L34.1988 3.73216C32.9619 2.40014 30.7332 3.27533 30.7332 5.09307V15.211C30.7332 16.3156 31.6286 17.211 32.7332 17.211Z" fill="#444444"/>
<path d="M6.24174 55.3346C6.24174 54.4506 6.44541 53.6576 6.85274 52.9556C7.26874 52.2536 7.82774 51.7076 8.52974 51.3176C9.24041 50.9189 10.0161 50.7196 10.8567 50.7196C11.8187 50.7196 12.6724 50.9579 13.4177 51.4346C14.1717 51.9026 14.7177 52.5699 15.0557 53.4366H13.2747C13.0407 52.9599 12.7157 52.6046 12.2997 52.3706C11.8837 52.1366 11.4027 52.0196 10.8567 52.0196C10.2587 52.0196 9.72574 52.1539 9.25774 52.4226C8.78974 52.6912 8.42141 53.0769 8.15274 53.5796C7.89274 54.0822 7.76274 54.6672 7.76274 55.3346C7.76274 56.0019 7.89274 56.5869 8.15274 57.0896C8.42141 57.5922 8.78974 57.9822 9.25774 58.2596C9.72574 58.5282 10.2587 58.6626 10.8567 58.6626C11.4027 58.6626 11.8837 58.5456 12.2997 58.3116C12.7157 58.0776 13.0407 57.7222 13.2747 57.2456H15.0557C14.7177 58.1122 14.1717 58.7796 13.4177 59.2476C12.6724 59.7156 11.8187 59.9496 10.8567 59.9496C10.0074 59.9496 9.23174 59.7546 8.52974 59.3646C7.82774 58.9659 7.26874 58.4156 6.85274 57.7136C6.44541 57.0116 6.24174 56.2186 6.24174 55.3346ZM19.7674 59.9626C19.1608 59.9626 18.6148 59.8586 18.1294 59.6506C17.6441 59.4339 17.2628 59.1306 16.9854 58.7406C16.7081 58.3506 16.5694 57.8956 16.5694 57.3756H18.1554C18.1901 57.7656 18.3418 58.0862 18.6104 58.3376C18.8878 58.5889 19.2734 58.7146 19.7674 58.7146C20.2788 58.7146 20.6774 58.5932 20.9634 58.3506C21.2494 58.0992 21.3924 57.7786 21.3924 57.3886C21.3924 57.0852 21.3014 56.8382 21.1194 56.6476C20.9461 56.4569 20.7251 56.3096 20.4564 56.2056C20.1964 56.1016 19.8324 55.9889 19.3644 55.8676C18.7751 55.7116 18.2941 55.5556 17.9214 55.3996C17.5574 55.2349 17.2454 54.9836 16.9854 54.6456C16.7254 54.3076 16.5954 53.8569 16.5954 53.2936C16.5954 52.7736 16.7254 52.3186 16.9854 51.9286C17.2454 51.5386 17.6094 51.2396 18.0774 51.0316C18.5454 50.8236 19.0871 50.7196 19.7024 50.7196C20.5778 50.7196 21.2928 50.9406 21.8474 51.3826C22.4108 51.8159 22.7228 52.4139 22.7834 53.1766H21.1454C21.1194 52.8472 20.9634 52.5656 20.6774 52.3316C20.3914 52.0976 20.0144 51.9806 19.5464 51.9806C19.1218 51.9806 18.7751 52.0889 18.5064 52.3056C18.2378 52.5222 18.1034 52.8342 18.1034 53.2416C18.1034 53.5189 18.1858 53.7486 18.3504 53.9306C18.5238 54.1039 18.7404 54.2426 19.0004 54.3466C19.2604 54.4506 19.6158 54.5632 20.0664 54.6846C20.6644 54.8492 21.1498 55.0139 21.5224 55.1786C21.9038 55.3432 22.2244 55.5989 22.4844 55.9456C22.7531 56.2836 22.8874 56.7386 22.8874 57.3106C22.8874 57.7699 22.7618 58.2032 22.5104 58.6106C22.2678 59.0179 21.9081 59.3472 21.4314 59.5986C20.9634 59.8412 20.4088 59.9626 19.7674 59.9626ZM29.3291 59.8716L27.2491 56.2576H26.1181V59.8716H24.6361V50.8366H27.7561C28.4495 50.8366 29.0345 50.9579 29.5111 51.2006C29.9965 51.4432 30.3561 51.7682 30.5901 52.1756C30.8328 52.5829 30.9541 53.0379 30.9541 53.5406C30.9541 54.1299 30.7808 54.6672 30.4341 55.1526C30.0961 55.6292 29.5718 55.9542 28.8611 56.1276L31.0971 59.8716H29.3291ZM26.1181 55.0746H27.7561C28.3108 55.0746 28.7268 54.9359 29.0041 54.6586C29.2901 54.3812 29.4331 54.0086 29.4331 53.5406C29.4331 53.0726 29.2945 52.7086 29.0171 52.4486C28.7398 52.1799 28.3195 52.0456 27.7561 52.0456H26.1181V55.0746Z" fill="#FF2E2E"/>
</svg>
